<?xml version="1.0" encoding="UTF-8" standalone="no" ?>
<!DOCTYPE svg PUBLIC "-//W3C//DTD SVG 1.1//EN" "http://www.w3.org/Graphics/SVG/1.1/DTD/svg11.dtd">
<svg xmlns="http://www.w3.org/2000/svg" xmlns:xlink="http://www.w3.org/1999/xlink" version="1.1" width="1080" height="1080" viewBox="0 0 1080 1080" xml:space="preserve">
<desc>Created with Fabric.js 5.2.4</desc>
<defs>
</defs>
<g transform="matrix(1 0 0 1 540 540)" id="65136d57-0754-4261-acfa-09c5fc348e08"  >
<rect style="stroke: none; stroke-width: 1; stroke-dasharray: none; stroke-linecap: butt; stroke-dashoffset: 0; stroke-linejoin: miter; stroke-miterlimit: 4; fill: rgb(255,255,255); fill-rule: nonzero; opacity: 1; visibility: hidden;" vector-effect="non-scaling-stroke"  x="-540" y="-540" rx="0" ry="0" width="1080" height="1080" />
</g>
<g transform="matrix(1 0 0 1 540 540)" id="815a3dda-16a7-42e0-b53a-5b79ce6c6bec"  >
</g>
<g transform="matrix(1 0 0 1 50 50)"  >
<rect style="stroke: none; stroke-width: 1; stroke-dasharray: none; stroke-linecap: butt; stroke-dashoffset: 0; stroke-linejoin: miter; stroke-miterlimit: 4; fill: rgb(255,255,255); fill-opacity: 0; fill-rule: nonzero; opacity: 1;" vector-effect="non-scaling-stroke"  x="-50" y="-50" rx="0" ry="0" width="100" height="100" />
</g>
<g transform="matrix(1 0 0 1 540 540)"  >
<rect style="stroke: none; stroke-width: 1; stroke-dasharray: none; stroke-linecap: butt; stroke-dashoffset: 0; stroke-linejoin: miter; stroke-miterlimit: 4; fill: rgb(255,255,255); fill-rule: nonzero; opacity: 1; visibility: hidden;" vector-effect="non-scaling-stroke"  x="-540" y="-540" rx="0" ry="0" width="1080" height="1080" />
</g>
<g transform="matrix(5.46 0 0 6.48 874.35 461.96)"  >
<polygon style="stroke: none; stroke-width: 1; stroke-dasharray: none; stroke-linecap: butt; stroke-dashoffset: 0; stroke-linejoin: miter; stroke-miterlimit: 4; fill: rgb(214,54,0); fill-rule: nonzero; opacity: 1;" vector-effect="non-scaling-stroke"  points="-14.38,-26.46 -4.46,-26.46 0.29,-10.46 5.37,-26.46 14.96,-26.46 7.37,-0.63 15.68,26.43 5.12,26.46 0.19,10.55 -4.54,26.46 -15.68,26.41 -6.38,-0.66 " />
</g>
<g transform="matrix(6.88 0 0 6.38 693.86 459)"  >
<path style="stroke: none; stroke-width: 0; stroke-dasharray: none; stroke-linecap: butt; stroke-dashoffset: 0; stroke-linejoin: miter; stroke-miterlimit: 4; fill: rgb(255,255,255); fill-rule: nonzero; opacity: 1;" vector-effect="non-scaling-stroke"  transform=" translate(-83.55, -28.23)" d="M 78.377 54.711 L 88.471 4.762 L 73.607 4.762 L 73.607 1.746 L 93.488 1.746 L 93.488 4.085 C 91.949 11.984 90.226 20.515 88.318 29.676000000000002 C 86.41 38.836 84.716 47.182 83.24 54.711 L 78.377 54.711 z" stroke-linecap="round" />
</g>
<g transform="matrix(7.84 0 0 6.56 149.42 463.43)"  >
<path style="stroke: none; stroke-width: 1; stroke-dasharray: none; stroke-linecap: butt; stroke-dashoffset: 0; stroke-linejoin: miter; stroke-miterlimit: 4; fill: rgb(255,255,255); fill-rule: nonzero; opacity: 1;" vector-effect="non-scaling-stroke"  transform=" translate(-5.27, -28.26)" d="M 5.883 54.627 L 5.883 9.337 C 5.005 9.93 3.983 10.491 2.819 11.022 C 1.655 11.554 0.715 11.901 0 12.064 L 0 7.651 C 1.226 7.202 2.553 6.481999999999999 3.983 5.491 C 5.413 4.5 6.547 3.3 7.385 1.891 L 10.541 1.891 L 10.541 54.626999999999995 L 5.883 54.626999999999995 z" stroke-linecap="round" />
</g>
<g transform="matrix(7.53 0 0 6.21 328.51 459.8)"  >
<path style="stroke: none; stroke-width: 1; stroke-dasharray: none; stroke-linecap: butt; stroke-dashoffset: 0; stroke-linejoin: miter; stroke-miterlimit: 4; fill: rgb(255,255,255); fill-rule: nonzero; opacity: 1;" vector-effect="non-scaling-stroke"  transform=" translate(-29.33, -28.44)" d="M 17.387 42.711 L 17.387 41.91 L 21.754 41.91 C 21.795 43.982 21.985000000000003 45.683 22.323 47.015 C 22.66 48.349000000000004 23.178 49.372 23.876 50.091 C 24.572000000000003 50.808 25.356 51.294000000000004 26.228 51.552 C 27.099 51.808 28.191000000000003 51.935 29.503 51.935 C 30.692 51.935 31.701999999999998 51.771 32.532 51.443000000000005 C 33.361999999999995 51.117000000000004 34.099999999999994 50.547000000000004 34.745999999999995 49.736000000000004 C 35.391999999999996 48.92700000000001 35.86899999999999 47.779 36.175999999999995 46.293000000000006 C 36.483999999999995 44.80700000000001 36.63699999999999 42.95700000000001 36.63699999999999 40.742000000000004 C 36.63699999999999 39.00000000000001 36.50899999999999 37.45700000000001 36.25299999999999 36.115 C 35.99699999999999 34.773 35.57599999999999 33.556000000000004 34.99199999999999 32.47 C 34.40799999999999 31.384 33.59299999999999 30.529 32.54699999999999 29.901999999999997 C 31.50199999999999 29.278999999999996 30.24099999999999 28.903 28.76499999999999 28.779999999999998 L 28.76499999999999 24.813 C 31.71699999999999 24.689999999999998 33.76599999999999 23.855 34.91499999999999 22.305999999999997 C 36.062999999999995 20.758999999999997 36.63699999999999 18.108999999999998 36.63699999999999 14.356999999999998 C 36.63699999999999 10.933999999999997 36.05299999999999 8.509999999999998 34.88499999999999 7.084999999999997 C 33.71699999999999 5.660999999999998 31.932999999999993 4.947999999999997 29.533999999999992 4.947999999999997 C 27.11499999999999 4.947999999999997 25.25399999999999 5.747999999999997 23.952999999999992 7.3459999999999965 C 22.650999999999993 8.944999999999997 21.917999999999992 11.538999999999996 21.75399999999999 15.125999999999998 L 17.356999999999992 15.125999999999998 L 17.356999999999992 14.356999999999998 C 17.356999999999992 12.593999999999998 17.571999999999992 10.953999999999997 18.002999999999993 9.436999999999998 C 18.433999999999994 7.919999999999998 19.109999999999992 6.530999999999997 20.031999999999993 5.269999999999998 C 20.953999999999994 4.008999999999998 22.230999999999995 3.014999999999998 23.860999999999994 2.2869999999999977 C 25.489999999999995 1.5599999999999978 27.412999999999993 1.1959999999999977 29.626999999999995 1.1959999999999977 C 31.286999999999995 1.1959999999999977 32.782999999999994 1.4369999999999976 34.11599999999999 1.9189999999999978 C 35.44899999999999 2.400999999999998 36.55499999999999 3.051999999999998 37.43699999999999 3.871999999999998 C 38.31799999999999 4.691999999999998 39.05599999999999 5.670999999999998 39.65099999999999 6.8089999999999975 C 40.24599999999999 7.945999999999998 40.67099999999999 9.140999999999998 40.92699999999999 10.390999999999998 C 41.18299999999999 11.641999999999998 41.31099999999999 12.973999999999998 41.31099999999999 14.389 C 41.31099999999999 17.791999999999998 40.63399999999999 20.570999999999998 39.28099999999999 22.723 C 37.92799999999999 24.875 36.19599999999999 26.258 34.08399999999999 26.872999999999998 C 38.90099999999999 28.801 41.31099999999999 33.391999999999996 41.31099999999999 40.65 C 41.31099999999999 50.675 37.230999999999995 55.687 29.071999999999992 55.687 C 27.39099999999999 55.687 25.87899999999999 55.445 24.535999999999994 54.964 C 23.192999999999994 54.484 22.079999999999995 53.836999999999996 21.199999999999996 53.025999999999996 C 20.317999999999994 52.214999999999996 19.584999999999997 51.248999999999995 19.000999999999998 50.12 C 18.416999999999998 48.992999999999995 18.000999999999998 47.818999999999996 17.755 46.599999999999994 C 17.51 45.381 17.387 44.084 17.387 42.711 z" stroke-linecap="round" />
</g>
<g transform="matrix(7.31 0 0 6.15 534.08 456.89)"  >
<path style="stroke: none; stroke-width: 1; stroke-dasharray: none; stroke-linecap: butt; stroke-dashoffset: 0; stroke-linejoin: miter; stroke-miterlimit: 4; fill: rgb(255,255,255); fill-rule: nonzero; opacity: 1;" vector-effect="non-scaling-stroke"  transform=" translate(-58.5, -28.44)" d="M 46.416 42.875 L 46.416 42.066 L 50.833999999999996 42.066 C 50.87499999999999 44.160000000000004 51.065999999999995 45.88 51.409 47.228 C 51.751 48.576 52.274 49.613 52.979 50.339 C 53.683 51.064 54.477 51.556 55.359 51.815999999999995 C 56.24 52.07599999999999 57.343 52.205 58.672000000000004 52.205 C 59.874 52.205 60.896 52.039 61.73500000000001 51.707 C 62.57500000000001 51.377 63.32200000000001 50.801 63.97500000000001 49.980000000000004 C 64.62700000000001 49.162000000000006 65.11000000000001 48.001000000000005 65.42 46.498000000000005 C 65.733 44.996 65.887 43.123000000000005 65.887 40.883 C 65.887 39.121 65.758 37.561 65.498 36.203 C 65.23800000000001 34.845000000000006 64.81400000000001 33.615 64.223 32.517 C 63.632999999999996 31.417 62.808 30.552000000000003 61.75 29.919000000000004 C 60.693 29.286000000000005 59.418 28.908000000000005 57.926 28.784000000000002 L 57.926 24.771 C 60.911 24.647000000000002 62.985 23.802 64.145 22.236 C 65.307 20.672 65.887 17.991 65.887 14.196000000000002 C 65.887 10.734000000000002 65.297 8.281000000000002 64.116 6.840000000000002 C 62.933 5.400000000000002 61.129 4.678000000000002 58.703 4.678000000000002 C 56.256 4.678000000000002 54.374 5.487000000000002 53.057 7.104000000000002 C 51.74 8.722000000000001 50.998000000000005 11.345000000000002 50.833 14.974000000000002 L 46.385 14.974000000000002 L 46.385 14.196000000000002 C 46.385 12.413000000000002 46.603 10.755000000000003 47.038 9.220000000000002 C 47.47299999999999 7.685000000000002 48.157 6.281000000000002 49.090999999999994 5.005000000000003 C 50.023999999999994 3.7300000000000026 51.315 2.7240000000000024 52.962999999999994 1.9880000000000027 C 54.611 1.2530000000000028 56.556 0.8840000000000026 58.79599999999999 0.8840000000000026 C 60.474999999999994 0.8840000000000026 61.986999999999995 1.1280000000000026 63.33599999999999 1.6150000000000024 C 64.684 2.1020000000000025 65.80499999999999 2.7610000000000023 66.69699999999999 3.5900000000000025 C 67.588 4.419000000000002 68.33399999999999 5.4090000000000025 68.93499999999999 6.560000000000002 C 69.53599999999999 7.711000000000002 69.966 8.919000000000002 70.22599999999998 10.184000000000003 C 70.48599999999999 11.449000000000003 70.61499999999998 12.797000000000002 70.61499999999998 14.227000000000004 C 70.61499999999998 17.669000000000004 69.92899999999997 20.479000000000003 68.56199999999998 22.656000000000006 C 67.19299999999998 24.834000000000007 65.44099999999999 26.233000000000004 63.30399999999998 26.855000000000004 C 68.17699999999998 28.805000000000003 70.61499999999998 33.44800000000001 70.61499999999998 40.790000000000006 C 70.615 50.93 66.488 56 58.236 56 C 56.535 56 55.006 55.756 53.647999999999996 55.27 C 52.29 54.784000000000006 51.165 54.129000000000005 50.272999999999996 53.309000000000005 C 49.38099999999999 52.49100000000001 48.63999999999999 51.51200000000001 48.04899999999999 50.371 C 47.45799999999999 49.23 47.03799999999999 48.043 46.788999999999994 46.808 C 46.541 45.576 46.416 44.264 46.416 42.875 z" stroke-linecap="round" />
</g>
<g transform="matrix(0.8 0 0 0.79 540 670.73)"  >
<path style="stroke: none; stroke-width: 0; stroke-dasharray: none; stroke-linecap: butt; stroke-dashoffset: 0; stroke-linejoin: miter; stroke-miterlimit: 4; fill: rgb(255,255,255); fill-rule: nonzero; opacity: 1;" vector-effect="non-scaling-stroke"  transform=" translate(-480.03, 36.26)" d="M 62.33 -57.88 L 62.33 -64.46 L 83.55 -64.46 L 83.55 -37.7 L 78.24 -37.7 L 78.24 -37.7 Q 73.03 -37.7 70.57 -38.81 L 70.57 -38.81 L 70.57 -38.81 Q 68.11 -39.93 66.71 -41.32 L 66.71 -41.32 L 66.71 -41.32 Q 65.31 -42.72 64.32 -45 L 64.32 -45 L 64.32 -45 Q 62.33 -49.64 62.33 -57.88 L 62.33 -57.88 Z M 31.69 0 L 31.69 -64.46 L 57.17 -64.46 L 57.17 0 L 31.69 0 Z M 5.16 -37.7 L 5.16 -64.46 L 26.38 -64.46 L 26.38 -57.88 L 26.38 -57.88 Q 26.38 -45.71 21.98 -41.3 L 21.98 -41.3 L 21.98 -41.3 Q 18.38 -37.7 10.47 -37.7 L 10.47 -37.7 L 5.16 -37.7 Z M 128.92 0 L 128.92 -48.31 L 132.57 -48.31 L 132.57 -48.31 Q 144.22 -48.31 150.47 -41.11 L 150.47 -41.11 L 150.47 -41.11 Q 156.11 -34.58 156.11 -23.78 L 156.11 -23.78 L 156.11 -23.78 Q 156.11 -12.79 149.86 -6.54 L 149.86 -6.54 L 149.86 -6.54 Q 143.32 0 131.39 0 L 131.39 0 L 128.92 0 Z M 94.06 -23.59 L 94.06 -23.59 L 94.06 -23.59 Q 94.06 -28.8 95.44 -33.27 L 95.44 -33.27 L 95.44 -33.27 Q 96.81 -37.75 99.7 -41.11 L 99.7 -41.11 L 99.7 -41.11 Q 105.95 -48.31 117.6 -48.31 L 117.6 -48.31 L 121.25 -48.31 L 121.25 0 L 118.79 0 L 118.79 0 Q 106.85 0 100.32 -6.54 L 100.32 -6.54 L 100.32 -6.54 Q 94.06 -12.79 94.06 -23.59 Z M 203.57 -24.16 L 203.57 -34.86 L 203.57 -34.86 Q 203.57 -48.31 220.95 -48.31 L 220.95 -48.31 L 227.58 -48.31 L 227.58 -24.16 L 203.57 -24.16 Z M 170.41 0 L 170.41 -48.31 L 196.75 -48.31 L 196.75 0 L 170.41 0 Z M 276.36 -24.16 L 276.36 -34.86 L 276.36 -34.86 Q 276.36 -48.31 293.75 -48.31 L 293.75 -48.31 L 300.38 -48.31 L 300.38 -24.16 L 276.36 -24.16 Z M 243.21 0 L 243.21 -48.31 L 269.54 -48.31 L 269.54 0 L 243.21 0 Z M 347.31 -21.65 L 347.31 -48.31 L 350.44 -48.31 L 350.44 -48.31 Q 368.34 -48.31 372.28 -36.19 L 372.28 -36.19 L 372.28 -36.19 Q 373.55 -32.16 373.55 -26.85 L 373.55 -26.85 L 373.55 -21.65 L 347.31 -21.65 Z M 313.12 -23.59 L 313.12 -23.59 L 313.12 -23.59 Q 313.12 -28.8 314.49 -33.27 L 314.49 -33.27 L 314.49 -33.27 Q 315.87 -37.75 318.75 -41.11 L 318.75 -41.11 L 318.75 -41.11 Q 325.01 -48.31 336.66 -48.31 L 336.66 -48.31 L 340.31 -48.31 L 340.31 0 L 337.84 0 L 337.84 0 Q 325.91 0 319.37 -6.54 L 319.37 -6.54 L 319.37 -6.54 Q 313.12 -12.79 313.12 -23.59 Z M 347.31 0 L 347.31 -12.36 L 371 -12.36 L 371 -11.04 L 371 -11.04 Q 371 -6.63 367.82 -3.6 L 367.82 -3.6 L 367.82 -3.6 Q 363.94 0 356.79 0 L 356.79 0 L 347.31 0 Z M 419.97 0 L 419.97 -48.31 L 424.23 -48.31 L 424.23 -48.31 Q 441.66 -48.31 445.03 -36.47 L 445.03 -36.47 L 445.03 -36.47 Q 446.16 -32.63 446.16 -27.61 L 446.16 -27.61 L 446.16 0 L 419.97 0 Z M 385.82 0 L 385.82 -48.31 L 412.16 -48.31 L 412.16 0 L 385.82 0 Z M 485.62 0 L 481.92 0 L 481.92 0 Q 458.48 0 458.48 -21.41 L 458.48 -21.41 L 458.48 -48.03 L 478.51 -61.15 L 485.62 -61.15 L 485.62 0 Z M 492.48 -32.44 L 492.48 -48.31 L 515.17 -48.31 L 515.17 -32.44 L 492.48 -32.44 Z M 492.53 0 L 492.53 -20.22 L 518.82 -20.22 L 518.82 -16.06 L 518.82 -16.06 Q 518.82 -8 513.89 -4.17 L 513.89 -4.17 L 513.89 -4.17 Q 508.54 0 496.6 0 L 496.6 0 L 492.53 0 Z M 591.52 -32.02 L 562.3 -64.46 L 591.52 -64.46 L 591.52 -32.02 Z M 570.35 -0.05 L 531.37 -45.42 L 531.08 -45.42 L 531.08 -45.42 Q 531.08 -55.18 536.39 -59.82 L 536.39 -59.82 L 536.39 -59.82 Q 541.69 -64.46 552.73 -64.46 L 552.73 -64.46 L 591.52 -17.38 L 591.52 -17.38 Q 591.52 -8 586.45 -3.98 L 586.45 -3.98 L 586.45 -3.98 Q 581.53 -0.05 570.35 -0.05 L 570.35 -0.05 Z M 531.23 0 L 531.23 -32.63 L 559.36 0 L 531.23 0 Z M 637.94 -21.65 L 637.94 -48.31 L 641.06 -48.31 L 641.06 -48.31 Q 658.97 -48.31 662.9 -36.19 L 662.9 -36.19 L 662.9 -36.19 Q 664.18 -32.16 664.18 -26.85 L 664.18 -26.85 L 664.18 -21.65 L 637.94 -21.65 Z M 603.74 -23.59 L 603.74 -23.59 L 603.74 -23.59 Q 603.74 -28.8 605.11 -33.27 L 605.11 -33.27 L 605.11 -33.27 Q 606.49 -37.75 609.38 -41.11 L 609.38 -41.11 L 609.38 -41.11 Q 615.63 -48.31 627.28 -48.31 L 627.28 -48.31 L 630.93 -48.31 L 630.93 0 L 628.46 0 L 628.46 0 Q 616.53 0 609.99 -6.54 L 609.99 -6.54 L 609.99 -6.54 Q 603.74 -12.79 603.74 -23.59 Z M 637.94 0 L 637.94 -12.36 L 661.62 -12.36 L 661.62 -11.04 L 661.62 -11.04 Q 661.62 -6.63 658.44 -3.6 L 658.44 -3.6 L 658.44 -3.6 Q 654.56 0 647.41 0 L 647.41 0 L 637.94 0 Z M 710.64 -18.71 L 710.64 -48.31 L 736.78 -48.31 L 736.78 0 L 733.8 0 L 733.8 0 Q 721.48 0 716.09 -4.31 L 716.09 -4.31 L 716.09 -4.31 Q 710.64 -8.67 710.64 -18.71 L 710.64 -18.71 Z M 676.44 -23.59 L 676.44 -23.59 L 676.44 -23.59 Q 676.44 -28.8 677.82 -33.27 L 677.82 -33.27 L 677.82 -33.27 Q 679.19 -37.75 682.08 -41.11 L 682.08 -41.11 L 682.08 -41.11 Q 688.33 -48.31 699.98 -48.31 L 699.98 -48.31 L 703.63 -48.31 L 703.63 0 L 701.17 0 L 701.17 0 Q 689.23 0 682.69 -6.54 L 682.69 -6.54 L 682.69 -6.54 Q 676.44 -12.79 676.44 -23.59 Z M 785.09 -24.16 L 785.09 -34.86 L 785.09 -34.86 Q 785.09 -48.31 802.48 -48.31 L 802.48 -48.31 L 809.11 -48.31 L 809.11 -24.16 L 785.09 -24.16 Z M 751.94 0 L 751.94 -48.31 L 778.27 -48.31 L 778.27 0 L 751.94 0 Z M 856.04 -39.83 L 856.04 -48.31 L 882.19 -48.31 L 882.19 -21.27 L 878.83 -21.27 L 878.83 -21.27 Q 866.61 -21.27 861.3 -25.48 L 861.3 -25.48 L 861.3 -25.48 Q 856.04 -29.7 856.04 -39.83 L 856.04 -39.83 Z M 821.94 -23.59 L 821.94 -23.59 L 821.94 -23.59 Q 821.94 -28.8 823.32 -33.27 L 823.32 -33.27 L 823.32 -33.27 Q 824.69 -37.75 827.58 -41.11 L 827.58 -41.11 L 827.58 -41.11 Q 833.74 -48.31 845.39 -48.31 L 845.39 -48.31 L 849.03 -48.31 L 849.03 0 L 846.57 0 L 846.57 0 Q 834.59 0 828.15 -6.54 L 828.15 -6.54 L 828.15 -6.54 Q 821.94 -12.74 821.94 -23.59 Z M 856.04 0 L 856.04 -12.36 L 879.73 -12.36 L 879.73 -11.04 L 879.73 -11.04 Q 879.73 -6.63 876.55 -3.6 L 876.55 -3.6 L 876.55 -3.6 Q 872.67 0 865.52 0 L 865.52 0 L 856.04 0 Z M 894.5 0 L 894.5 -72.51 L 919.98 -72.51 L 919.98 0 L 894.5 0 Z M 928.7 0 L 928.7 -48.31 L 932.96 -48.31 L 932.96 -48.31 Q 950.39 -48.31 953.75 -36.47 L 953.75 -36.47 L 953.75 -36.47 Q 954.89 -32.63 954.89 -27.61 L 954.89 -27.61 L 954.89 0 L 928.7 0 Z" stroke-linecap="round" />
</g>
</svg>