<svg width="1327.050048828125px" height="186.4000061035156px" xmlns="http://www.w3.org/2000/svg" viewBox="-413.5250244140625 -18.200003051757804 1327.050048828125 186.4000061035156"  preserveAspectRatio="xMidYMid"><defs><filter id="editing-hole" x="-100%" y="-100%" width="300%" height="300%"><feFlood flood-color="#ea0000" result="black"></feFlood><feMorphology operator="dilate" radius="2" in="SourceGraphic" result="erode"></feMorphology><feGaussianBlur in="erode" stdDeviation="4" result="blur"></feGaussianBlur><feOffset in="blur" dx="2" dy="2" result="offset"></feOffset><feComposite operator="atop" in="offset" in2="black" result="merge"></feComposite><feComposite operator="in" in="merge" in2="SourceGraphic" result="inner-shadow"></feComposite></filter></defs><g filter="url(#editing-hole)"><g transform="translate(-230.02505111694336, 111.25499725341797)"><path d="M62.33-57.88L62.33-64.46L83.55-64.46L83.55-37.70L78.24-37.70L78.24-37.70Q73.03-37.70 70.57-38.81L70.57-38.81L70.57-38.81Q68.11-39.93 66.71-41.32L66.71-41.32L66.71-41.32Q65.31-42.72 64.32-45.00L64.32-45.00L64.32-45.00Q62.33-49.64 62.33-57.88L62.33-57.88ZM31.69 0L31.69-64.46L57.17-64.46L57.17 0L31.69 0ZM5.16-37.70L5.16-64.46L26.38-64.46L26.38-57.88L26.38-57.88Q26.38-45.71 21.98-41.30L21.98-41.30L21.98-41.30Q18.38-37.70 10.47-37.70L10.47-37.70L5.16-37.70ZM128.92 0L128.92-48.31L132.57-48.31L132.57-48.31Q144.22-48.31 150.47-41.11L150.47-41.11L150.47-41.11Q156.11-34.58 156.11-23.78L156.11-23.78L156.11-23.78Q156.11-12.79 149.86-6.54L149.86-6.54L149.86-6.54Q143.32 0 131.39 0L131.39 0L128.92 0ZM94.06-23.59L94.06-23.59L94.06-23.59Q94.06-28.80 95.44-33.27L95.44-33.27L95.44-33.27Q96.81-37.75 99.70-41.11L99.70-41.11L99.70-41.11Q105.95-48.31 117.60-48.31L117.60-48.31L121.25-48.31L121.25 0L118.79 0L118.79 0Q106.85 0 100.32-6.54L100.32-6.54L100.32-6.54Q94.06-12.79 94.06-23.59ZM203.57-24.16L203.57-34.86L203.57-34.86Q203.57-48.31 220.95-48.31L220.95-48.31L227.58-48.31L227.58-24.16L203.57-24.16ZM170.41 0L170.41-48.31L196.75-48.31L196.75 0L170.41 0ZM276.36-24.16L276.36-34.86L276.36-34.86Q276.36-48.31 293.75-48.31L293.75-48.31L300.38-48.31L300.38-24.16L276.36-24.16ZM243.21 0L243.21-48.31L269.54-48.31L269.54 0L243.21 0ZM347.31-21.65L347.31-48.31L350.44-48.31L350.44-48.31Q368.34-48.31 372.28-36.19L372.28-36.19L372.28-36.19Q373.55-32.16 373.55-26.85L373.55-26.85L373.55-21.65L347.31-21.65ZM313.12-23.59L313.12-23.59L313.12-23.59Q313.12-28.80 314.49-33.27L314.49-33.27L314.49-33.27Q315.87-37.75 318.75-41.11L318.75-41.11L318.75-41.11Q325.01-48.31 336.66-48.31L336.66-48.31L340.31-48.31L340.31 0L337.84 0L337.84 0Q325.91 0 319.37-6.54L319.37-6.54L319.37-6.54Q313.12-12.79 313.12-23.59ZM347.31 0L347.31-12.36L371.00-12.36L371.00-11.04L371.00-11.04Q371.00-6.63 367.82-3.60L367.82-3.60L367.82-3.60Q363.94 0 356.79 0L356.79 0L347.31 0ZM419.97 0L419.97-48.31L424.23-48.31L424.23-48.31Q441.66-48.31 445.03-36.47L445.03-36.47L445.03-36.47Q446.16-32.63 446.16-27.61L446.16-27.61L446.16 0L419.97 0ZM385.82 0L385.82-48.31L412.16-48.31L412.16 0L385.82 0ZM485.62 0L481.92 0L481.92 0Q458.48 0 458.48-21.41L458.48-21.41L458.48-48.03L478.51-61.15L485.62-61.15L485.62 0ZM492.48-32.44L492.48-48.31L515.17-48.31L515.17-32.44L492.48-32.44ZM492.53 0L492.53-20.22L518.82-20.22L518.82-16.06L518.82-16.06Q518.82-8.00 513.89-4.17L513.89-4.17L513.89-4.17Q508.54 0 496.60 0L496.60 0L492.53 0ZM591.52-32.02L562.30-64.46L591.52-64.46L591.52-32.02ZM570.35-0.05L531.37-45.42L531.08-45.42L531.08-45.42Q531.08-55.18 536.39-59.82L536.39-59.82L536.39-59.82Q541.69-64.46 552.73-64.46L552.73-64.46L591.52-17.38L591.52-17.38Q591.52-8.00 586.45-3.98L586.45-3.98L586.45-3.98Q581.53-0.05 570.35-0.05L570.35-0.05ZM531.23 0L531.23-32.63L559.36 0L531.23 0ZM637.94-21.65L637.94-48.31L641.06-48.31L641.06-48.31Q658.97-48.31 662.90-36.19L662.90-36.19L662.90-36.19Q664.18-32.16 664.18-26.85L664.18-26.85L664.18-21.65L637.94-21.65ZM603.74-23.59L603.74-23.59L603.74-23.59Q603.74-28.80 605.11-33.27L605.11-33.27L605.11-33.27Q606.49-37.75 609.38-41.11L609.38-41.11L609.38-41.11Q615.63-48.31 627.28-48.31L627.28-48.31L630.93-48.31L630.93 0L628.46 0L628.46 0Q616.53 0 609.99-6.54L609.99-6.54L609.99-6.54Q603.74-12.79 603.74-23.59ZM637.94 0L637.94-12.36L661.62-12.36L661.62-11.04L661.62-11.04Q661.62-6.63 658.44-3.60L658.44-3.60L658.44-3.60Q654.56 0 647.41 0L647.41 0L637.94 0ZM710.64-18.71L710.64-48.31L736.78-48.31L736.78 0L733.80 0L733.80 0Q721.48 0 716.09-4.31L716.09-4.31L716.09-4.31Q710.64-8.67 710.64-18.71L710.64-18.71ZM676.44-23.59L676.44-23.59L676.44-23.59Q676.44-28.80 677.82-33.27L677.82-33.27L677.82-33.27Q679.19-37.75 682.08-41.11L682.08-41.11L682.08-41.11Q688.33-48.31 699.98-48.31L699.98-48.31L703.63-48.31L703.63 0L701.17 0L701.17 0Q689.23 0 682.69-6.54L682.69-6.54L682.69-6.54Q676.44-12.79 676.44-23.59ZM785.09-24.16L785.09-34.86L785.09-34.86Q785.09-48.31 802.48-48.31L802.48-48.31L809.11-48.31L809.11-24.16L785.09-24.16ZM751.94 0L751.94-48.31L778.27-48.31L778.27 0L751.94 0ZM856.04-39.83L856.04-48.31L882.19-48.31L882.19-21.27L878.83-21.27L878.83-21.27Q866.61-21.27 861.30-25.48L861.30-25.48L861.30-25.48Q856.04-29.70 856.04-39.83L856.04-39.83ZM821.94-23.59L821.94-23.59L821.94-23.59Q821.94-28.80 823.32-33.27L823.32-33.27L823.32-33.27Q824.69-37.75 827.58-41.11L827.58-41.11L827.58-41.11Q833.74-48.31 845.39-48.31L845.39-48.31L849.03-48.31L849.03 0L846.57 0L846.57 0Q834.59 0 828.15-6.54L828.15-6.54L828.15-6.54Q821.94-12.74 821.94-23.59ZM856.04 0L856.04-12.36L879.73-12.36L879.73-11.04L879.73-11.04Q879.73-6.63 876.55-3.60L876.55-3.60L876.55-3.60Q872.67 0 865.52 0L865.52 0L856.04 0ZM894.50 0L894.50-72.51L919.98-72.51L919.98 0L894.50 0ZM928.70 0L928.70-48.31L932.96-48.31L932.96-48.31Q950.39-48.31 953.75-36.47L953.75-36.47L953.75-36.47Q954.89-32.63 954.89-27.61L954.89-27.61L954.89 0L928.70 0Z" fill="#ffffff"></path></g></g><style>text {
  font-size: 64px;
  font-family: Arial Black;
  dominant-baseline: central;
  text-anchor: middle;
}</style></svg>