<svg width="884.6682617187499px" height="119.6px" xmlns="http://www.w3.org/2000/svg" viewBox="-192.33413085937497 15.200000000000003 884.6682617187499 119.6" style="background: rgba(0, 0, 0, 0);" preserveAspectRatio="xMidYMid"><defs><filter id="editing-hole" x="-100%" y="-100%" width="300%" height="300%"><feFlood flood-color="#000" result="black"></feFlood><feMorphology operator="dilate" radius="2" in="SourceGraphic" result="erode"></feMorphology><feGaussianBlur in="erode" stdDeviation="4" result="blur"></feGaussianBlur><feOffset in="blur" dx="2" dy="2" result="offset"></feOffset><feComposite operator="atop" in="offset" in2="black" result="merge"></feComposite><feComposite operator="in" in="merge" in2="SourceGraphic" result="inner-shadow"></feComposite></filter></defs><g filter="url(#editing-hole)"><g transform="translate(-67.83979678153992, 97.24000358581543)"><path d="M1.22-44.48L60.93-44.48L60.93-32.64L58.05-32.64L58.05-41.60L36.42-41.60L36.42-2.88L42.82-2.88L42.82 0L19.39 0L19.39-2.88L25.73-2.88L25.73-41.60L4.10-41.60L4.10-32.64L1.22-32.64L1.22-44.48ZM33.54-2.88L33.54-41.60L28.61-41.60L28.61-2.88L33.54-2.88ZM103.30-30.02L103.30 0L63.36 0L63.36-30.02L103.30-30.02ZM100.42-2.88L100.42-27.14L74.05-27.14L74.05-2.88L100.42-2.88ZM71.17-2.88L71.17-27.14L66.24-27.14L66.24-2.88L71.17-2.88ZM109.38-27.14L109.38-30.02L150.08-30.02L150.08-22.27L147.20-22.27L147.20-27.14L126.40-27.14L126.40-2.88L132.74-2.88L132.74 0L109.38 0L109.38-2.88L115.71-2.88L115.71-27.14L109.38-27.14ZM118.59-2.88L123.52-2.88L123.52-27.14L118.59-27.14L118.59-2.88ZM153.86-27.14L153.86-30.02L194.56-30.02L194.56-22.27L191.68-22.27L191.68-27.14L170.88-27.14L170.88-2.88L177.22-2.88L177.22 0L153.86 0L153.86-2.88L160.19-2.88L160.19-27.14L153.86-27.14ZM163.07-2.88L168-2.88L168-27.14L163.07-27.14L163.07-2.88ZM199.94 0L199.94-30.02L239.87-30.02L239.87-13.57L210.62-13.57L210.62-2.88L236.99-2.88L236.99-7.81L239.87-7.81L239.87 0L199.94 0ZM236.99-27.14L210.62-27.14L210.62-16.45L236.99-16.45L236.99-27.14ZM202.82-27.14L202.82-2.88L207.74-2.88L207.74-27.14L202.82-27.14ZM245.63-27.14L245.63-30.02L291.90-30.02L291.90-2.88L298.75-2.88L298.75 0L282.18 0L282.18-2.88L289.02-2.88L289.02-27.14L262.66-27.14L262.66-2.88L268.99-2.88L268.99 0L245.63 0L245.63-2.88L251.97-2.88L251.97-27.14L245.63-27.14ZM254.85-2.88L259.78-2.88L259.78-27.14L254.85-27.14L254.85-2.88ZM317.31-2.88L329.66-2.88L329.66 0L306.62 0L306.62-27.14L300.29-27.14L300.29-30.02L306.62-30.02L306.62-44.48L317.31-44.48L317.31-30.02L329.66-30.02L329.66-27.14L317.31-27.14L317.31-2.88ZM314.43-2.88L314.43-41.60L309.50-41.60L309.50-2.88L314.43-2.88ZM334.98-44.48L387.20-44.48L387.20-32.64L384.32-32.64L384.32-41.60L345.66-41.60L345.66-23.68L387.20-23.68L387.20 0L334.98 0L334.98-11.84L337.86-11.84L337.86-2.88L376.51-2.88L376.51-20.80L334.98-20.80L334.98-44.48ZM384.32-20.80L379.39-20.80L379.39-2.88L384.32-2.88L384.32-20.80ZM342.72-23.68L342.72-41.60L337.86-41.60L337.86-23.68L342.72-23.68ZM395.01 0L395.01-30.02L434.94-30.02L434.94-13.57L405.70-13.57L405.70-2.88L432.06-2.88L432.06-7.81L434.94-7.81L434.94 0L395.01 0ZM432.06-27.14L405.70-27.14L405.70-16.45L432.06-16.45L432.06-27.14ZM397.89-27.14L397.89-2.88L402.82-2.88L402.82-27.14L397.89-27.14ZM481.92-30.02L481.92-2.88L488.26-2.88L488.26 0L441.98 0L441.98-16.45L471.23-16.45L471.23-27.14L444.86-27.14L444.86-22.21L441.98-22.21L441.98-30.02L481.92-30.02ZM444.86-2.88L471.23-2.88L471.23-13.57L444.86-13.57L444.86-2.88ZM479.04-2.88L479.04-27.14L474.11-27.14L474.11-2.88L479.04-2.88ZM491.07-27.14L491.07-30.02L531.78-30.02L531.78-22.27L528.90-22.27L528.90-27.14L508.10-27.14L508.10-2.88L514.43-2.88L514.43 0L491.07 0L491.07-2.88L497.41-2.88L497.41-27.14L491.07-27.14ZM500.29-2.88L505.22-2.88L505.22-27.14L500.29-27.14L500.29-2.88ZM574.21-2.88L574.21-7.81L577.09-7.81L577.09 0L537.15 0L537.15-30.02L577.09-30.02L577.09-22.21L574.21-22.21L574.21-27.14L547.84-27.14L547.84-2.88L574.21-2.88ZM544.96-2.88L544.96-27.14L540.03-27.14L540.03-2.88L544.96-2.88ZM627.78-2.88L634.62-2.88L634.62 0L618.05 0L618.05-2.88L624.90-2.88L624.90-27.14L598.53-27.14L598.53-2.88L604.86-2.88L604.86 0L581.50 0L581.50-2.88L587.84-2.88L587.84-41.60L581.50-41.60L581.50-44.48L598.53-44.48L598.53-30.02L627.78-30.02L627.78-2.88ZM595.65-2.88L595.65-41.60L590.72-41.60L590.72-2.88L595.65-2.88Z" fill="#ccc"></path></g></g><style>text {
  font-size: 64px;
  font-family: Arial Black;
  dominant-baseline: central;
  text-anchor: middle;
}</style></svg>