<svg width="857.525px" height="124.39999999999999px" xmlns="http://www.w3.org/2000/svg" viewBox="-178.7625 12.800000000000004 857.525 124.39999999999999" style="background: rgb(253, 253, 253);" preserveAspectRatio="xMidYMid"><defs><filter id="editing-hole" x="-100%" y="-100%" width="300%" height="300%"><feFlood flood-color="#bbcedd" result="black"></feFlood><feMorphology operator="dilate" radius="2" in="SourceGraphic" result="erode"></feMorphology><feGaussianBlur in="erode" stdDeviation="4" result="blur"></feGaussianBlur><feOffset in="blur" dx="2" dy="2" result="offset"></feOffset><feComposite operator="atop" in="offset" in2="black" result="merge"></feComposite><feComposite operator="in" in="merge" in2="SourceGraphic" result="inner-shadow"></feComposite></filter></defs><g filter="url(#editing-hole)"><g transform="translate(-55.92499816417694, 97.40500450134277)"><path d="M29.69-38.41L29.69 0L23.28 0L23.28-38.41L0.63-38.41L0.63-44.81L52.34-44.81L52.34-38.41L29.69-38.41ZM95.66-17.66L95.66-17.66L95.66-17.66Q95.66-14 94.50-10.80L94.50-10.80L94.50-10.80Q93.34-7.59 91.20-5.19L91.20-5.19L91.20-5.19Q89.06-2.78 86.08-1.39L86.08-1.39L86.08-1.39Q83.09 0 79.44 0L79.44 0L68.31 0L68.31 0Q64.66 0 61.66-1.39L61.66-1.39L61.66-1.39Q58.66-2.78 56.52-5.19L56.52-5.19L56.52-5.19Q54.38-7.59 53.22-10.80L53.22-10.80L53.22-10.80Q52.06-14 52.06-17.66L52.06-17.66L52.06-17.66Q52.06-21.28 53.22-24.47L53.22-24.47L53.22-24.47Q54.38-27.66 56.52-30.05L56.52-30.05L56.52-30.05Q58.66-32.44 61.66-33.81L61.66-33.81L61.66-33.81Q64.66-35.19 68.31-35.19L68.31-35.19L79.44-35.19L79.44-35.19Q83.09-35.19 86.08-33.81L86.08-33.81L86.08-33.81Q89.06-32.44 91.20-30.05L91.20-30.05L91.20-30.05Q93.34-27.66 94.50-24.47L94.50-24.47L94.50-24.47Q95.66-21.28 95.66-17.66ZM89.25-17.66L89.25-17.66L89.25-17.66Q89.25-19.97 88.58-22.02L88.58-22.02L88.58-22.02Q87.91-24.06 86.64-25.58L86.64-25.58L86.64-25.58Q85.38-27.09 83.56-27.98L83.56-27.98L83.56-27.98Q81.75-28.88 79.44-28.88L79.44-28.88L68.31-28.88L68.31-28.88Q66-28.88 64.17-27.98L64.17-27.98L64.17-27.98Q62.34-27.09 61.08-25.58L61.08-25.58L61.08-25.58Q59.81-24.06 59.14-22.02L59.14-22.02L59.14-22.02Q58.47-19.97 58.47-17.66L58.47-17.66L58.47-17.66Q58.47-15.34 59.14-13.30L59.14-13.30L59.14-13.30Q59.81-11.25 61.08-9.72L61.08-9.72L61.08-9.72Q62.34-8.19 64.17-7.30L64.17-7.30L64.17-7.30Q66-6.41 68.31-6.41L68.31-6.41L79.44-6.41L79.44-6.41Q81.75-6.41 83.56-7.30L83.56-7.30L83.56-7.30Q85.38-8.19 86.64-9.72L86.64-9.72L86.64-9.72Q87.91-11.25 88.58-13.30L88.58-13.30L88.58-13.30Q89.25-15.34 89.25-17.66ZM133.78-10.06L144.16 0L135.44 0L125.44-9.53L112.47-9.53L112.47-15.88L130.19-15.88L130.19-15.88Q131.53-15.88 132.72-16.41L132.72-16.41L132.72-16.41Q133.91-16.94 134.78-17.83L134.78-17.83L134.78-17.83Q135.66-18.72 136.16-19.91L136.16-19.91L136.16-19.91Q136.66-21.09 136.66-22.41L136.66-22.41L136.66-22.41Q136.66-23.75 136.16-24.92L136.16-24.92L136.16-24.92Q135.66-26.09 134.78-26.97L134.78-26.97L134.78-26.97Q133.91-27.84 132.72-28.36L132.72-28.36L132.72-28.36Q131.53-28.88 130.19-28.88L130.19-28.88L109.13-28.88L109.13 0L102.72 0L102.72-35.19L130.19-35.19L130.19-35.19Q132.84-35.19 135.19-34.17L135.19-34.17L135.19-34.17Q137.53-33.16 139.27-31.42L139.27-31.42L139.27-31.42Q141-29.69 142-27.36L142-27.36L142-27.36Q143-25.03 143-22.41L143-22.41L143-22.41Q143-20.25 142.31-18.27L142.31-18.27L142.31-18.27Q141.63-16.28 140.39-14.64L140.39-14.64L140.39-14.64Q139.16-13 137.47-11.81L137.47-11.81L137.47-11.81Q135.78-10.63 133.78-10.06L133.78-10.06ZM181.66-10.06L192.03 0L183.31 0L173.31-9.53L160.34-9.53L160.34-15.88L178.06-15.88L178.06-15.88Q179.41-15.88 180.59-16.41L180.59-16.41L180.59-16.41Q181.78-16.94 182.66-17.83L182.66-17.83L182.66-17.83Q183.53-18.72 184.03-19.91L184.03-19.91L184.03-19.91Q184.53-21.09 184.53-22.41L184.53-22.41L184.53-22.41Q184.53-23.75 184.03-24.92L184.03-24.92L184.03-24.92Q183.53-26.09 182.66-26.97L182.66-26.97L182.66-26.97Q181.78-27.84 180.59-28.36L180.59-28.36L180.59-28.36Q179.41-28.88 178.06-28.88L178.06-28.88L157-28.88L157 0L150.59 0L150.59-35.19L178.06-35.19L178.06-35.19Q180.72-35.19 183.06-34.17L183.06-34.17L183.06-34.17Q185.41-33.16 187.14-31.42L187.14-31.42L187.14-31.42Q188.88-29.69 189.88-27.36L189.88-27.36L189.88-27.36Q190.88-25.03 190.88-22.41L190.88-22.41L190.88-22.41Q190.88-20.25 190.19-18.27L190.19-18.27L190.19-18.27Q189.50-16.28 188.27-14.64L188.27-14.64L188.27-14.64Q187.03-13 185.34-11.81L185.34-11.81L185.34-11.81Q183.66-10.63 181.66-10.06L181.66-10.06ZM235.22-6.47L235.22 0L198.47 0L198.47-35.31L235.22-35.31L235.22-28.88L204.94-28.88L204.94-6.47L235.22-6.47ZM231.13-21.06L231.13-14.59L207.97-14.59L207.97-21.06L231.13-21.06ZM281.03 0L274.66 0L274.66 0Q274.66-3.50 273.48-6.80L273.48-6.80L273.48-6.80Q272.31-10.09 270.33-13.02L270.33-13.02L270.33-13.02Q268.34-15.94 265.73-18.47L265.73-18.47L265.73-18.47Q263.13-21 260.25-22.98L260.25-22.98L260.25-22.98Q257.38-24.97 254.39-26.33L254.39-26.33L254.39-26.33Q251.41-27.69 248.72-28.34L248.72-28.34L248.72 0L242.31 0L242.31-35.19L245.78-35.19L245.78-35.13L245.78-35.13Q249.22-34.94 253.11-33.61L253.11-33.61L253.11-33.61Q257-32.28 260.86-30.02L260.86-30.02L260.86-30.02Q264.72-27.75 268.30-24.64L268.30-24.64L268.30-24.64Q271.88-21.53 274.66-17.78L274.66-17.78L274.66-35.19L281.03-35.19L281.03 0ZM309.72-28.88L309.72 0L303.31 0L303.31-28.88L286.38-28.88L286.38-35.19L326.63-35.19L326.63-28.88L309.72-28.88ZM382.16-12.81L382.16-12.81L382.16-12.81Q382.16-10.13 381.16-7.80L381.16-7.80L381.16-7.80Q380.16-5.47 378.42-3.73L378.42-3.73L378.42-3.73Q376.69-2 374.36-1L374.36-1L374.36-1Q372.03 0 369.38 0L369.38 0L330.44 0L330.44-6.41L369.38-6.41L369.38-6.41Q370.72-6.41 371.88-6.91L371.88-6.91L371.88-6.91Q373.03-7.41 373.89-8.28L373.89-8.28L373.89-8.28Q374.75-9.16 375.25-10.33L375.25-10.33L375.25-10.33Q375.75-11.50 375.75-12.81L375.75-12.81L375.75-12.81Q375.75-14.13 375.25-15.28L375.25-15.28L375.25-15.28Q374.75-16.44 373.89-17.31L373.89-17.31L373.89-17.31Q373.03-18.19 371.88-18.69L371.88-18.69L371.88-18.69Q370.72-19.19 369.38-19.19L369.38-19.19L343.25-19.19L343.25-19.19Q340.63-19.19 338.28-20.19L338.28-20.19L338.28-20.19Q335.94-21.19 334.20-22.92L334.20-22.92L334.20-22.92Q332.47-24.66 331.45-27L331.45-27L331.45-27Q330.44-29.34 330.44-32L330.44-32L330.44-32Q330.44-34.63 331.45-36.97L331.45-36.97L331.45-36.97Q332.47-39.31 334.20-41.05L334.20-41.05L334.20-41.05Q335.94-42.78 338.28-43.80L338.28-43.80L338.28-43.80Q340.63-44.81 343.25-44.81L343.25-44.81L378.97-44.81L378.97-38.41L343.25-38.41L343.25-38.41Q341.94-38.41 340.77-37.91L340.77-37.91L340.77-37.91Q339.59-37.41 338.72-36.53L338.72-36.53L338.72-36.53Q337.84-35.66 337.34-34.48L337.34-34.48L337.34-34.48Q336.84-33.31 336.84-32L336.84-32L336.84-32Q336.84-30.69 337.34-29.52L337.34-29.52L337.34-29.52Q337.84-28.34 338.72-27.47L338.72-27.47L338.72-27.47Q339.59-26.59 340.77-26.09L340.77-26.09L340.77-26.09Q341.94-25.59 343.25-25.59L343.25-25.59L369.38-25.59L369.38-25.59Q372.03-25.59 374.36-24.58L374.36-24.58L374.36-24.58Q376.69-23.56 378.42-21.83L378.42-21.83L378.42-21.83Q380.16-20.09 381.16-17.77L381.16-17.77L381.16-17.77Q382.16-15.44 382.16-12.81ZM425.63-6.47L425.63 0L388.88 0L388.88-35.31L425.63-35.31L425.63-28.88L395.34-28.88L395.34-6.47L425.63-6.47ZM421.53-21.06L421.53-14.59L398.38-14.59L398.38-21.06L421.53-21.06ZM473-35.31L473 0L466.59 0L466.59-9.66L441.94-9.66L441.94-16.19L466.59-16.19L466.59-28.88L449.94-28.88L449.94-28.88Q447.59-28.88 445.53-27.98L445.53-27.98L445.53-27.98Q443.47-27.09 441.94-25.56L441.94-25.56L441.94-25.56Q440.41-24.03 439.52-21.98L439.52-21.98L439.52-21.98Q438.63-19.94 438.63-17.59L438.63-17.59L438.63 0L432.16 0L432.16-17.59L432.16-17.59Q432.16-21.28 433.56-24.50L433.56-24.50L433.56-24.50Q434.97-27.72 437.38-30.13L437.38-30.13L437.38-30.13Q439.78-32.53 443.03-33.92L443.03-33.92L443.03-33.92Q446.28-35.31 449.94-35.31L449.94-35.31L473-35.31ZM513.25-10.06L523.63 0L514.91 0L504.91-9.53L491.94-9.53L491.94-15.88L509.66-15.88L509.66-15.88Q511-15.88 512.19-16.41L512.19-16.41L512.19-16.41Q513.38-16.94 514.25-17.83L514.25-17.83L514.25-17.83Q515.13-18.72 515.63-19.91L515.63-19.91L515.63-19.91Q516.13-21.09 516.13-22.41L516.13-22.41L516.13-22.41Q516.13-23.75 515.63-24.92L515.63-24.92L515.63-24.92Q515.13-26.09 514.25-26.97L514.25-26.97L514.25-26.97Q513.38-27.84 512.19-28.36L512.19-28.36L512.19-28.36Q511-28.88 509.66-28.88L509.66-28.88L488.59-28.88L488.59 0L482.19 0L482.19-35.19L509.66-35.19L509.66-35.19Q512.31-35.19 514.66-34.17L514.66-34.17L514.66-34.17Q517-33.16 518.73-31.42L518.73-31.42L518.73-31.42Q520.47-29.69 521.47-27.36L521.47-27.36L521.47-27.36Q522.47-25.03 522.47-22.41L522.47-22.41L522.47-22.41Q522.47-20.25 521.78-18.27L521.78-18.27L521.78-18.27Q521.09-16.28 519.86-14.64L519.86-14.64L519.86-14.64Q518.63-13 516.94-11.81L516.94-11.81L516.94-11.81Q515.25-10.63 513.25-10.06L513.25-10.06ZM567.13-6.47L567.13 0L544.41 0L544.41 0Q540.69 0 537.66-1.38L537.66-1.38L537.66-1.38Q534.63-2.75 532.47-5.14L532.47-5.14L532.47-5.14Q530.31-7.53 529.14-10.77L529.14-10.77L529.14-10.77Q527.97-14 527.97-17.72L527.97-17.72L527.97-17.72Q527.97-21.41 529.14-24.61L529.14-24.61L529.14-24.61Q530.31-27.81 532.47-30.19L532.47-30.19L532.47-30.19Q534.63-32.56 537.66-33.94L537.66-33.94L537.66-33.94Q540.69-35.31 544.41-35.31L544.41-35.31L567.13-35.31L567.13-28.88L544.41-28.88L544.41-28.88Q542.09-28.88 540.23-28L540.23-28L540.23-28Q538.38-27.13 537.09-25.63L537.09-25.63L537.09-25.63Q535.81-24.13 535.13-22.09L535.13-22.09L535.13-22.09Q534.44-20.06 534.44-17.72L534.44-17.72L534.44-17.72Q534.44-15.34 535.13-13.30L535.13-13.30L535.13-13.30Q535.81-11.25 537.09-9.73L537.09-9.73L537.09-9.73Q538.38-8.22 540.23-7.34L540.23-7.34L540.23-7.34Q542.09-6.47 544.41-6.47L544.41-6.47L567.13-6.47ZM611.22-35.19L611.22 0L604.81 0L604.81-14.34L583.66-14.34L583.66-20.75L604.81-20.75L604.81-35.19L611.22-35.19ZM580.63-35.19L580.63 0L574.22 0L574.22-35.19L580.63-35.19Z" fill="#ff7c7c"></path></g></g><style>text {
  font-size: 64px;
  font-family: Arial Black;
  dominant-baseline: central;
  text-anchor: middle;
}</style></svg>