<svg width="1808.20009765625px" height="215.20000610351562px" xmlns="http://www.w3.org/2000/svg" viewBox="-654.100048828125 -32.60000305175781 1808.20009765625 215.20000610351562" style="background: rgb(253, 253, 253);" preserveAspectRatio="xMidYMid"><defs><filter id="editing-hole" x="-100%" y="-100%" width="300%" height="300%"><feFlood flood-color="#f0f0f0" result="black"></feFlood><feMorphology operator="dilate" radius="2" in="SourceGraphic" result="erode"></feMorphology><feGaussianBlur in="erode" stdDeviation="4" result="blur"></feGaussianBlur><feOffset in="blur" dx="2" dy="2" result="offset"></feOffset><feComposite operator="atop" in="offset" in2="black" result="merge"></feComposite><feComposite operator="in" in="merge" in2="SourceGraphic" result="inner-shadow"></feComposite></filter></defs><g filter="url(#editing-hole)"><g transform="translate(-404.5099756717682, 108.94999647140503)"><path d="M28.23-44.23L2.91-40.74L2.91-67.90L111.45-67.90L111.45-40.74L86.14-44.23L86.14-54.13L69.84-54.13L69.84 0L44.52 0L44.52-54.13L28.23-54.13L28.23-44.23ZM202.92 0L115.14 0L115.14-51.41L202.92-51.41L202.92 0ZM139.39-38.80L139.39-12.61L178.67-12.61L178.67-38.80L139.39-38.80ZM223.78-38.80L211.65-38.80L211.65-51.41L241.14-51.41L246.09-46.56L250.94-51.41L299.92-51.41L299.92-30.07L275.67-32.49L275.67-38.80L248.03-38.80L248.03 0L223.78 0L223.78-38.80ZM314.96-38.80L302.83-38.80L302.83-51.41L332.32-51.41L337.27-46.56L342.12-51.41L391.10-51.41L391.10-30.07L366.85-32.49L366.85-38.80L339.21-38.80L339.21 0L314.96 0L314.96-38.80ZM406.14-38.80L394.01-38.80L394.01-51.41L491.98-51.41L491.98-25.71L430.39-16.98L430.39-12.61L467.73-12.61L467.73-16.98L491.98-19.40L491.98 0L406.14 0L406.14-38.80ZM430.39-38.80L430.39-29.49L467.73-34.44L467.73-38.80L430.39-38.80ZM533.69 0L509.44 0L509.44-51.41L526.81-51.41L531.75-46.56L536.60-51.41L572.49-51.41L596.26-39.77L596.26 0L572.01 0L572.01-35.89L566.19-38.80L533.69-38.80L533.69 0ZM616.14-38.80L604.02-38.80L604.02-51.41L616.14-51.41L616.14-67.90L640.39-67.90L640.39-51.41L664.16-51.41L664.16-38.80L640.39-38.80L640.39-15.52L646.21-12.61L683.56-12.61L683.56 0L639.91 0L616.14-11.64L616.14-38.80ZM793.95 0L694.23 0L694.23-22.31L719.55-18.62L719.55-13.77L768.63-13.77L768.63-22.31L694.23-34.05L694.23-67.90L793.95-67.90L793.95-44.33L768.63-48.21L768.63-54.13L719.55-54.13L719.55-44.91L793.95-33.17L793.95 0ZM814.80-38.80L802.68-38.80L802.68-51.41L900.65-51.41L900.65-25.71L839.05-16.98L839.05-12.61L876.40-12.61L876.40-16.98L900.65-19.40L900.65 0L814.80 0L814.80-38.80ZM839.05-38.80L839.05-29.49L876.40-34.44L876.40-38.80L839.05-38.80ZM977.76 0L918.11 0L918.11-25.71L980.67-33.47L980.67-38.80L942.36-38.80L942.36-34.44L918.11-32.01L918.11-51.41L1004.92-51.41L1004.92 0L987.56 0L982.61-4.85L977.76 0ZM942.36-16.98L942.36-12.61L980.67-12.61L980.67-21.73L942.36-16.98ZM1025.78-38.80L1013.65-38.80L1013.65-51.41L1043.14-51.41L1048.09-46.56L1052.94-51.41L1101.92-51.41L1101.92-30.07L1077.67-32.49L1077.67-38.80L1050.03-38.80L1050.03 0L1025.78 0L1025.78-38.80ZM1116.96-38.80L1104.83-38.80L1104.83-51.41L1202.80-51.41L1202.80-32.01L1178.55-34.44L1178.55-38.80L1141.21-38.80L1141.21-12.61L1178.55-12.61L1178.55-16.98L1202.80-19.40L1202.80 0L1116.96 0L1116.96-38.80ZM1243.54 0L1219.29 0L1219.29-67.90L1243.54-67.90L1243.54-53.35L1306.11-45.59L1306.11 0L1281.86 0L1281.86-36.38L1243.54-41.23L1243.54 0Z" fill="#ffffff"></path></g></g><style>text {
  font-size: 64px;
  font-family: Arial Black;
  dominant-baseline: central;
  text-anchor: middle;
}</style></svg>