<svg width="1310.95625px" height="165.2px" xmlns="http://www.w3.org/2000/svg" viewBox="-405.478125 -7.599999999999994 1310.95625 165.2" style="background: rgb(253, 253, 253);" preserveAspectRatio="xMidYMid"><defs><filter id="editing-hole" x="-100%" y="-100%" width="300%" height="300%"><feFlood flood-color="#f0f0f0" result="black"></feFlood><feMorphology operator="dilate" radius="2" in="SourceGraphic" result="erode"></feMorphology><feGaussianBlur in="erode" stdDeviation="4" result="blur"></feGaussianBlur><feOffset in="blur" dx="2" dy="2" result="offset"></feOffset><feComposite operator="atop" in="offset" in2="black" result="merge"></feComposite><feComposite operator="in" in="merge" in2="SourceGraphic" result="inner-shadow"></feComposite></filter></defs><g filter="url(#editing-hole)"><g transform="translate(-223.72998237609863, 104.36500358581543)"><path d="M4.17-49.73L4.17-49.73L4.17-49.73Q4.17-52.38 6.02-54.23L6.02-54.23L6.02-54.23Q7.86-56.08 10.51-56.08L10.51-56.08L65.65-56.08L65.65-56.08Q68.30-56.08 70.19-54.28L70.19-54.28L70.19-54.28Q71.99-52.38 71.99-49.73L71.99-49.73L71.99-49.73Q71.99-47.08 70.15-45.23L70.15-45.23L70.15-45.23Q68.30-43.38 65.65-43.38L65.65-43.38L44.52-43.38L44.52-5.02L44.52-5.02Q43.95 0.66 38.27 1.14L38.27 1.14L38.27 1.14Q35.62 1.14 33.68-0.62L33.68-0.62L33.68-0.62Q31.73-2.37 31.73-5.02L31.73-5.02L31.73-43.38L10.51-43.38L10.51-43.38Q7.86-43.38 6.06-45.28L6.06-45.28L6.06-45.28Q4.17-47.08 4.17-49.73ZM128.83-0.19L101.55-0.19L101.55-0.19Q93.21-0.47 88.95-4.12L88.95-4.12L88.95-4.12Q84.69-7.77 82.79-12.36L82.79-12.36L82.79-12.36Q80.90-16.96 80.90-21.69L80.90-21.69L80.90-21.69Q80.90-26.62 82.74-31.21L82.74-31.21L82.74-31.21Q84.59-35.81 88.90-39.45L88.90-39.45L88.90-39.45Q93.21-43.10 99.84-43.20L99.84-43.20L130.53-43.20L130.53-43.20Q137.16-43.10 141.47-39.45L141.47-39.45L141.47-39.45Q145.78-35.81 147.63-31.21L147.63-31.21L147.63-31.21Q149.48-26.62 149.48-21.69L149.48-21.69L149.48-21.69Q149.48-16.96 147.58-12.36L147.58-12.36L147.58-12.36Q145.69-7.77 141.43-4.12L141.43-4.12L141.43-4.12Q137.16-0.47 128.83-0.19L128.83-0.19ZM130.91-30.50L99.46-30.50L99.46-30.50Q97.66-30.50 96.34-29.03L96.34-29.03L96.34-29.03Q95.01-27.57 94.40-25.62L94.40-25.62L94.40-25.62Q93.78-23.68 93.78-21.79L93.78-21.79L93.78-21.79Q93.78-19.80 94.40-17.86L94.40-17.86L94.40-17.86Q95.01-15.91 96.34-14.45L96.34-14.45L96.34-14.45Q97.66-12.98 99.46-12.88L99.46-12.88L130.91-12.88L130.91-12.88Q132.71-12.98 134.04-14.45L134.04-14.45L134.04-14.45Q135.36-15.91 135.98-17.86L135.98-17.86L135.98-17.86Q136.60-19.80 136.60-21.79L136.60-21.79L136.60-21.79Q136.60-23.68 135.98-25.62L135.98-25.62L135.98-25.62Q135.36-27.57 134.04-29.03L134.04-29.03L134.04-29.03Q132.71-30.50 130.91-30.50L130.91-30.50ZM162.36-31.26L162.36-31.26L162.36-31.26Q164.16-35.81 168.47-39.45L168.47-39.45L168.47-39.45Q172.78-43.10 179.41-43.20L179.41-43.20L215.03-43.20L215.03-43.20Q217.68-43.20 219.48-41.30L219.48-41.30L219.48-41.30Q221.38-39.50 221.38-36.85L221.38-36.85L221.38-36.85Q221.38-34.20 219.53-32.35L219.53-32.35L219.53-32.35Q217.68-30.50 215.03-30.50L215.03-30.50L179.03-30.50L179.03-30.50Q177.23-30.50 175.91-29.03L175.91-29.03L175.91-29.03Q174.58-27.57 173.87-25.58L173.87-25.58L173.87-25.58Q173.16-23.59 173.16-21.79L173.16-21.79L173.16-5.21L173.16-5.21Q172.59 0.47 166.91 0.95L166.91 0.95L166.91 0.95Q164.26 0.95 162.31-0.81L162.31-0.81L162.31-0.81Q160.37-2.56 160.37-5.21L160.37-5.21L160.37-21.69L160.47-21.69L160.47-21.69Q160.47-26.62 162.36-31.26ZM232.74-31.26L232.74-31.26L232.74-31.26Q234.54-35.81 238.85-39.45L238.85-39.45L238.85-39.45Q243.16-43.10 249.79-43.20L249.79-43.20L285.41-43.20L285.41-43.20Q288.06-43.20 289.86-41.30L289.86-41.30L289.86-41.30Q291.76-39.50 291.76-36.85L291.76-36.85L291.76-36.85Q291.76-34.20 289.91-32.35L289.91-32.35L289.91-32.35Q288.06-30.50 285.41-30.50L285.41-30.50L249.42-30.50L249.42-30.50Q247.62-30.50 246.29-29.03L246.29-29.03L246.29-29.03Q244.96-27.57 244.25-25.58L244.25-25.58L244.25-25.58Q243.54-23.59 243.54-21.79L243.54-21.79L243.54-5.21L243.54-5.21Q242.97 0.47 237.29 0.95L237.29 0.95L237.29 0.95Q234.64 0.95 232.70-0.81L232.70-0.81L232.70-0.81Q230.75-2.56 230.75-5.21L230.75-5.21L230.75-21.69L230.85-21.69L230.85-21.69Q230.85-26.62 232.74-31.26ZM354.85-0.19L320.55-0.19L320.55-0.19Q312.22-0.47 307.96-4.12L307.96-4.12L307.96-4.12Q303.69-7.77 301.80-12.36L301.80-12.36L301.80-12.36Q299.90-16.96 299.90-21.69L299.90-21.69L299.90-21.69Q299.90-26.62 301.75-31.21L301.75-31.21L301.75-31.21Q303.60-35.81 307.91-39.45L307.91-39.45L307.91-39.45Q312.22-43.10 318.85-43.20L318.85-43.20L354.85-43.20L354.85-43.20Q357.50-43.20 359.30-41.40L359.30-41.40L359.30-41.40Q361.19-39.69 361.19-37.23L361.19-37.23L361.19-37.23Q361.19-34.67 359.35-32.92L359.35-32.92L359.35-32.92Q357.50-31.17 354.85-31.17L354.85-31.17L319.42-31.17L319.42-31.17Q317.33-31.17 315.77-29.74L315.77-29.74L315.77-29.74Q314.21-28.32 313.50-26.05L313.50-26.05L313.50-26.05Q312.79-23.78 312.79-21.60L312.79-21.60L312.79-21.60Q312.79-19.23 313.50-16.96L313.50-16.96L313.50-16.96Q314.21-14.68 315.77-13.31L315.77-13.31L315.77-13.31Q317.33-11.94 319.42-11.84L319.42-11.84L354.85-11.84L354.85-11.84Q357.50-11.84 359.35-10.14L359.35-10.14L359.35-10.14Q361.19-8.43 361.19-6.06L361.19-6.06L361.19-6.06Q361.19-3.60 359.30-1.89L359.30-1.89L359.30-1.89Q357.50-0.19 354.85-0.19L354.85-0.19ZM360.06-21.88L360.06-21.88L360.06-21.88Q360.06-20.08 358.45-18.76L358.45-18.76L358.45-18.76Q357.02-17.52 354.85-17.52L354.85-17.52L323.87-17.52L323.87-17.52Q321.69-17.52 320.18-18.80L320.18-18.80L320.18-18.80Q318.66-20.08 318.66-21.88L318.66-21.88L318.66-21.88Q318.66-23.59 320.18-24.91L320.18-24.91L320.18-24.91Q321.69-26.14 323.87-26.14L323.87-26.14L354.85-26.14L354.85-26.14Q357.02-26.14 358.54-24.87L358.54-24.87L358.54-24.87Q360.06-23.59 360.06-21.88ZM402.30-44.62L402.30-44.62L402.30-44.62Q407.23-44.62 412.01-43.48L412.01-43.48L412.01-43.48Q416.80-42.34 421.15-40.12L421.15-40.12L421.15-40.12Q425.51-37.89 428.87-34.20L428.87-34.20L428.87-34.20Q432.24-30.50 432.52-25.39L432.52-25.39L432.52-21.41L432.52-5.21L432.52-5.21Q431.95 0.47 426.27 0.95L426.27 0.95L426.27 0.95Q423.62 0.95 421.68-0.81L421.68-0.81L421.68-0.81Q419.73-2.56 419.73-5.21L419.73-5.21L419.73-9.38L419.73-22.45L419.73-22.45Q419.54-25.39 417.51-27.33L417.51-27.33L417.51-27.33Q415.47-29.27 412.96-30.41L412.96-30.41L412.96-30.41Q410.45-31.54 407.75-32.11L407.75-32.11L407.75-32.11Q405.05-32.68 402.30-32.68L402.30-32.68L402.30-32.68Q399.56-32.68 396.86-32.11L396.86-32.11L396.86-32.11Q394.16-31.54 391.65-30.41L391.65-30.41L391.65-30.41Q389.14-29.27 387.10-27.33L387.10-27.33L387.10-27.33Q385.06-25.39 384.87-22.45L384.87-22.45L384.87-9.38L384.87-5.21L384.87-5.21Q384.40 0.47 378.72 0.95L378.72 0.95L378.72 0.95Q376.06 0.95 374.12-0.81L374.12-0.81L374.12-0.81Q372.18-2.56 372.18-5.21L372.18-5.21L372.18-21.41L372.18-25.39L372.18-25.39Q372.46-30.50 375.78-34.20L375.78-34.20L375.78-34.20Q379.10-37.89 383.45-40.12L383.45-40.12L383.45-40.12Q387.81-42.34 392.59-43.48L392.59-43.48L392.59-43.48Q397.38-44.62 402.30-44.62ZM465.11-57.59L465.11-57.59L465.11-57.59Q467.76-57.59 469.65-55.84L469.65-55.84L469.65-55.84Q471.55-54.09 471.64-51.44L471.64-51.44L471.64-43.20L503.85-43.20L503.85-43.20Q506.50-43.20 508.40-41.40L508.40-41.40L508.40-41.40Q510.20-39.50 510.20-36.85L510.20-36.85L510.20-36.85Q510.20-34.20 508.35-32.35L508.35-32.35L508.35-32.35Q506.50-30.50 503.85-30.50L503.85-30.50L471.64-30.50L471.64-28.61L471.64-28.61Q471.55-24.72 472.16-21.46L472.16-21.46L472.16-21.46Q472.78-18.19 475.15-15.63L475.15-15.63L475.15-15.63Q477.52-13.07 481.12-12.88L481.12-12.88L504.23-12.88L504.23-12.88Q506.88-12.79 508.63-10.89L508.63-10.89L508.63-10.89Q510.39-9.00 510.39-6.35L510.39-6.35L510.39-6.35Q510.29-3.79 508.54-2.04L508.54-2.04L508.54-2.04Q506.79-0.28 504.23-0.19L504.23-0.19L477.90-0.19L477.90-0.19Q471.26-0.57 466.95-4.69L466.95-4.69L466.95-4.69Q462.64-8.81 460.75-14.78L460.75-14.78L460.75-14.78Q458.95-20.75 458.86-27.47L458.86-27.47L458.86-30.50L447.96-30.50L447.96-30.50Q445.31-30.50 443.51-32.40L443.51-32.40L443.51-32.40Q441.62-34.20 441.62-36.85L441.62-36.85L441.62-36.85Q441.62-39.50 443.46-41.35L443.46-41.35L443.46-41.35Q445.31-43.20 447.96-43.20L447.96-43.20L458.86-43.20L458.86-51.44L458.86-51.44Q458.95-53.99 460.75-55.75L460.75-55.75L460.75-55.75Q462.55-57.50 465.11-57.59ZM580.77-49.73L580.77-49.73L580.77-49.73Q580.77-47.08 578.87-45.28L578.87-45.28L578.87-45.28Q577.07-43.38 574.42-43.38L574.42-43.38L536.53-43.38L536.53-43.38Q534.73-43.29 533.55-42.58L533.55-42.58L533.55-42.58Q532.36-41.87 531.79-40.97L531.79-40.97L531.79-40.97Q531.23-40.07 531.23-39.12L531.23-39.12L531.23-39.12Q531.23-38.17 531.79-37.27L531.79-37.27L531.79-37.27Q532.36-36.38 533.55-35.66L533.55-35.66L533.55-35.66Q534.73-34.95 536.53-34.86L536.53-34.86L563.43-34.86L563.43-34.86Q570.06-34.67 574.37-31.78L574.37-31.78L574.37-31.78Q578.68-28.89 580.53-25.15L580.53-25.15L580.53-25.15Q582.38-21.41 582.38-17.52L582.38-17.52L582.38-17.52Q582.38-13.74 580.48-9.99L580.48-9.99L580.48-9.99Q578.59-6.25 574.33-3.36L574.33-3.36L574.33-3.36Q570.06-0.47 563.43-0.47L563.43-0.47L562.87-0.47L562.87-0.47Q562.30-0.38 561.73-0.38L561.73-0.38L525.92-0.38L525.92-0.38Q523.27-0.38 521.42-2.23L521.42-2.23L521.42-2.23Q519.58-4.07 519.58-6.73L519.58-6.73L519.58-6.73Q519.58-9.38 521.47-11.18L521.47-11.18L521.47-11.18Q523.27-13.07 525.92-13.07L525.92-13.07L564.00-13.07L564.00-13.07Q565.80-12.98 566.99-13.74L566.99-13.74L566.99-13.74Q568.17-14.49 568.74-15.49L568.74-15.49L568.74-15.49Q569.31-16.48 569.31-17.52L569.31-17.52L569.31-17.52Q569.31-18.19 568.74-19.37L568.74-19.37L568.74-19.37Q568.17-20.56 566.99-21.31L566.99-21.31L566.99-21.31Q565.80-22.07 564.00-22.17L564.00-22.17L537.10-22.17L537.10-22.17Q530.47-22.36 526.16-25.20L526.16-25.20L526.16-25.20Q521.85-28.04 520.00-31.69L520.00-31.69L520.00-31.69Q518.15-35.33 518.15-39.12L518.15-39.12L518.15-39.12Q518.15-42.82 520.05-46.46L520.05-46.46L520.05-46.46Q521.94-50.11 526.21-52.95L526.21-52.95L526.21-52.95Q530.47-55.79 537.10-55.98L537.10-55.98L537.67-55.98L537.67-55.98Q538.24-56.08 538.80-56.08L538.80-56.08L574.42-56.08L574.42-56.08Q577.07-56.08 578.92-54.23L578.92-54.23L578.92-54.23Q580.77-52.38 580.77-49.73ZM646.70-0.19L612.41-0.19L612.41-0.19Q604.07-0.47 599.81-4.12L599.81-4.12L599.81-4.12Q595.55-7.77 593.65-12.36L593.65-12.36L593.65-12.36Q591.76-16.96 591.76-21.69L591.76-21.69L591.76-21.69Q591.76-26.62 593.60-31.21L593.60-31.21L593.60-31.21Q595.45-35.81 599.76-39.45L599.76-39.45L599.76-39.45Q604.07-43.10 610.70-43.20L610.70-43.20L646.70-43.20L646.70-43.20Q649.35-43.20 651.15-41.40L651.15-41.40L651.15-41.40Q653.04-39.69 653.04-37.23L653.04-37.23L653.04-37.23Q653.04-34.67 651.20-32.92L651.20-32.92L651.20-32.92Q649.35-31.17 646.70-31.17L646.70-31.17L611.27-31.17L611.27-31.17Q609.19-31.17 607.62-29.74L607.62-29.74L607.62-29.74Q606.06-28.32 605.35-26.05L605.35-26.05L605.35-26.05Q604.64-23.78 604.64-21.60L604.64-21.60L604.64-21.60Q604.64-19.23 605.35-16.96L605.35-16.96L605.35-16.96Q606.06-14.68 607.62-13.31L607.62-13.31L607.62-13.31Q609.19-11.94 611.27-11.84L611.27-11.84L646.70-11.84L646.70-11.84Q649.35-11.84 651.20-10.14L651.20-10.14L651.20-10.14Q653.04-8.43 653.04-6.06L653.04-6.06L653.04-6.06Q653.04-3.60 651.15-1.89L651.15-1.89L651.15-1.89Q649.35-0.19 646.70-0.19L646.70-0.19ZM651.91-21.88L651.91-21.88L651.91-21.88Q651.91-20.08 650.30-18.76L650.30-18.76L650.30-18.76Q648.88-17.52 646.70-17.52L646.70-17.52L615.72-17.52L615.72-17.52Q613.54-17.52 612.03-18.80L612.03-18.80L612.03-18.80Q610.51-20.08 610.51-21.88L610.51-21.88L610.51-21.88Q610.51-23.59 612.03-24.91L612.03-24.91L612.03-24.91Q613.54-26.14 615.72-26.14L615.72-26.14L646.70-26.14L646.70-26.14Q648.88-26.14 650.39-24.87L650.39-24.87L650.39-24.87Q651.91-23.59 651.91-21.88ZM716.89-5.21L716.89-5.21L716.89-28.04L716.89-28.04Q716.89-30.41 714.43-30.50L714.43-30.50L681.27-30.50L681.27-30.50Q679.47-30.41 678.15-28.94L678.15-28.94L678.15-28.94Q676.82-27.47 676.21-25.53L676.21-25.53L676.21-25.53Q675.59-23.59 675.59-21.60L675.59-21.60L675.59-21.60Q675.59-19.70 676.21-17.76L676.21-17.76L676.21-17.76Q676.82-15.82 678.15-14.35L678.15-14.35L678.15-14.35Q679.47-12.88 681.27-12.88L681.27-12.88L705.52-12.88L705.52-12.88Q708.18-12.88 710.02-11.04L710.02-11.04L710.02-11.04Q711.87-9.19 711.87-6.54L711.87-6.54L711.87-6.54Q711.87-3.88 709.98-2.08L709.98-2.08L709.98-2.08Q708.18-0.19 705.52-0.19L705.52-0.19L681.65-0.19L681.65-0.19Q675.02-0.28 670.71-3.93L670.71-3.93L670.71-3.93Q666.40-7.58 664.55-12.17L664.55-12.17L664.55-12.17Q662.71-16.77 662.71-21.69L662.71-21.69L662.71-21.69Q662.71-26.43 664.60-31.02L664.60-31.02L664.60-31.02Q666.50-35.62 670.76-39.26L670.76-39.26L670.76-39.26Q675.02-42.91 683.36-43.20L683.36-43.20L723.14-43.20L723.14-43.20Q725.79-43.20 727.69-41.44L727.69-41.44L727.69-41.44Q729.58-39.69 729.68-37.04L729.68-37.04L729.68-5.21L729.68-5.21Q729.68-2.56 727.74-0.81L727.74-0.81L727.74-0.81Q725.79 0.95 723.14 0.95L723.14 0.95L723.14 0.95Q717.46 0.47 716.89-5.21ZM743.89-31.26L743.89-31.26L743.89-31.26Q745.69-35.81 750.00-39.45L750.00-39.45L750.00-39.45Q754.31-43.10 760.94-43.20L760.94-43.20L796.56-43.20L796.56-43.20Q799.21-43.20 801.01-41.30L801.01-41.30L801.01-41.30Q802.90-39.50 802.90-36.85L802.90-36.85L802.90-36.85Q802.90-34.20 801.06-32.35L801.06-32.35L801.06-32.35Q799.21-30.50 796.56-30.50L796.56-30.50L760.56-30.50L760.56-30.50Q758.76-30.50 757.43-29.03L757.43-29.03L757.43-29.03Q756.11-27.57 755.40-25.58L755.40-25.58L755.40-25.58Q754.69-23.59 754.69-21.79L754.69-21.79L754.69-5.21L754.69-5.21Q754.12 0.47 748.43 0.95L748.43 0.95L748.43 0.95Q745.78 0.95 743.84-0.81L743.84-0.81L743.84-0.81Q741.90-2.56 741.90-5.21L741.90-5.21L741.90-21.69L741.99-21.69L741.99-21.69Q741.99-26.62 743.89-31.26ZM865.80-0.19L831.51-0.19L831.51-0.19Q823.17-0.47 818.91-4.12L818.91-4.12L818.91-4.12Q814.65-7.77 812.75-12.36L812.75-12.36L812.75-12.36Q810.86-16.96 810.86-21.69L810.86-21.69L810.86-21.69Q810.86-26.62 812.71-31.21L812.71-31.21L812.71-31.21Q814.55-35.81 818.86-39.45L818.86-39.45L818.86-39.45Q823.17-43.10 829.80-43.20L829.80-43.20L865.80-43.20L865.80-43.20Q868.45-43.20 870.25-41.30L870.25-41.30L870.25-41.30Q872.15-39.50 872.15-36.85L872.15-36.85L872.15-36.85Q872.15-34.20 870.30-32.35L870.30-32.35L870.30-32.35Q868.45-30.50 865.80-30.50L865.80-30.50L829.43-30.50L829.43-30.50Q827.63-30.50 826.30-29.03L826.30-29.03L826.30-29.03Q824.97-27.57 824.36-25.62L824.36-25.62L824.36-25.62Q823.74-23.68 823.74-21.79L823.74-21.79L823.74-21.79Q823.74-19.80 824.36-17.86L824.36-17.86L824.36-17.86Q824.97-15.91 826.30-14.45L826.30-14.45L826.30-14.45Q827.63-12.98 829.43-12.88L829.43-12.88L865.80-12.88L865.80-12.88Q868.45-12.88 870.30-11.04L870.30-11.04L870.30-11.04Q872.15-9.19 872.15-6.54L872.15-6.54L872.15-6.54Q872.15-3.88 870.25-2.08L870.25-2.08L870.25-2.08Q868.45-0.19 865.80-0.19L865.80-0.19ZM888.63-57.59L888.63-57.59L888.63-57.59Q891.19-57.50 892.99-55.75L892.99-55.75L892.99-55.75Q894.79-53.99 894.88-51.44L894.88-51.44L894.88-43.20L924.25-43.20L924.25-43.20Q930.88-43.10 935.19-39.45L935.19-39.45L935.19-39.45Q939.50-35.81 941.30-31.26L941.30-31.26L941.30-31.26Q943.19-26.62 943.19-21.69L943.19-21.69L943.29-21.69L943.29-5.21L943.29-5.21Q943.29-2.56 941.35-0.81L941.35-0.81L941.35-0.81Q939.40 0.95 936.75 0.95L936.75 0.95L936.75 0.95Q931.07 0.47 930.50-5.21L930.50-5.21L930.50-21.79L930.50-21.79Q930.50-23.59 929.79-25.58L929.79-25.58L929.79-25.58Q929.08-27.57 927.75-29.03L927.75-29.03L927.75-29.03Q926.43-30.50 924.63-30.50L924.63-30.50L894.88-30.50L894.88-5.02L894.88-5.02Q894.31 0.66 888.63 1.14L888.63 1.14L888.63 1.14Q885.98 1.14 884.04-0.62L884.04-0.62L884.04-0.62Q882.09-2.37 882.09-5.02L882.09-5.02L882.09-51.44L882.09-51.44Q882.19-54.09 884.08-55.84L884.08-55.84L884.08-55.84Q885.98-57.59 888.63-57.59Z" fill="#85a2b6"></path></g></g><style>text {
  font-size: 64px;
  font-family: Arial Black;
  dominant-baseline: central;
  text-anchor: middle;
}</style></svg>