<svg width="562.3249633789062px" height="126.8px" xmlns="http://www.w3.org/2000/svg" viewBox="-31.162481689453102 11.600000000000001 562.3249633789062 126.8" style="background: rgba(0, 0, 0, 0);" preserveAspectRatio="xMidYMid"><defs><filter id="editing-hole" x="-100%" y="-100%" width="300%" height="300%"><feFlood flood-color="#000" result="black"></feFlood><feMorphology operator="dilate" radius="2" in="SourceGraphic" result="erode"></feMorphology><feGaussianBlur in="erode" stdDeviation="4" result="blur"></feGaussianBlur><feOffset in="blur" dx="2" dy="2" result="offset"></feOffset><feComposite operator="atop" in="offset" in2="black" result="merge"></feComposite><feComposite operator="in" in="merge" in2="SourceGraphic" result="inner-shadow"></feComposite></filter></defs><g filter="url(#editing-hole)"><g transform="translate(51.599974036216736, 98.13500022888184)"><path d="M1.60-41.34L1.60-46.27L21.63-46.27L21.63-46.27Q22.66-46.27 23.30-45.57L23.30-45.57L23.30-45.57Q23.94-44.86 23.94-43.71L23.94-43.71L23.94 0L17.22 0L17.22 0Q15.04 0 14.37-0.70L14.37-0.70L14.37-0.70Q13.70-1.41 13.70-3.65L13.70-3.65L13.70-38.27L3.46-38.27L3.46-38.27Q1.60-38.27 1.60-41.34L1.60-41.34ZM26.50-38.27L26.50-46.27L36.74-46.27L36.74-46.27Q38.59-46.27 38.59-43.20L38.59-43.20L38.59-38.27L26.50-38.27ZM54.21-27.20L54.21-32L60.42-32L60.42-32Q62.85-32 64.38-31.78L64.38-31.78L64.38-31.78Q65.92-31.55 67.07-30.78L67.07-30.78L67.07-30.78Q68.22-30.02 68.80-29.09L68.80-29.09L68.80-29.09Q69.38-28.16 69.70-26.11L69.70-26.11L69.70-26.11Q70.21-23.23 70.21-18.05L70.21-18.05L70.21-18.05Q70.21-12.86 70.14-11.04L70.14-11.04L70.14-11.04Q70.08-9.22 69.92-7.17L69.92-7.17L69.92-7.17Q69.76-5.12 69.34-4.16L69.34-4.16L69.34-4.16Q68.93-3.20 68.26-2.21L68.26-2.21L68.26-2.21Q67.58-1.22 66.50-0.83L66.50-0.83L66.50-0.83Q64.13 0 60.42 0L60.42 0L60.29 0L60.29-24.13L60.29-24.13Q60.29-24.26 60.29-24.90L60.29-24.90L60.29-24.90Q60.29-25.54 60.22-25.98L60.22-25.98L60.22-25.98Q59.90-27.20 57.66-27.20L57.66-27.20L54.21-27.20ZM52.16-32L52.29-32L52.29-7.87L52.29-7.87Q52.29-7.74 52.29-7.10L52.29-7.10L52.29-7.10Q52.29-6.46 52.42-6.02L52.42-6.02L52.42-6.02Q52.67-4.80 54.91-4.80L54.91-4.80L58.37-4.80L58.37 0L52.16 0L52.16 0Q49.73 0 48.19-0.22L48.19-0.22L48.19-0.22Q46.66-0.45 45.50-1.22L45.50-1.22L45.50-1.22Q44.35-1.98 43.78-2.91L43.78-2.91L43.78-2.91Q43.20-3.84 42.82-5.89L42.82-5.89L42.82-5.89Q42.37-8.77 42.37-13.95L42.37-13.95L42.37-13.95Q42.37-19.14 42.43-20.96L42.43-20.96L42.43-20.96Q42.50-22.78 42.66-24.83L42.66-24.83L42.66-24.83Q42.82-26.88 43.23-27.84L43.23-27.84L43.23-27.84Q43.65-28.80 44.32-29.79L44.32-29.79L44.32-29.79Q44.99-30.78 46.08-31.17L46.08-31.17L46.08-31.17Q48.45-32 52.16-32L52.16-32ZM84.03-32L84.03-32L91.71-32L91.71-32Q92.10-32 92.10-31.55L92.10-31.55L92.10-27.65L92.10-27.65Q92.10-27.20 91.58-27.20L91.58-27.20L88.70-27.20L88.70-27.20Q87.17-27.20 86.91-26.62L86.91-26.62L86.91-26.62Q86.66-25.79 86.66-24.77L86.66-24.77L86.66-4.93L86.66-4.93Q86.66-2.75 85.22-1.38L85.22-1.38L85.22-1.38Q83.78 0 80.96 0L80.96 0L77.06 0L77.06-24.90L77.06-24.90Q77.06-28.67 78.75-30.34L78.75-30.34L78.75-30.34Q80.45-32 84.03-32ZM103.87-32L103.87-32L111.55-32L111.55-32Q111.94-32 111.94-31.55L111.94-31.55L111.94-27.65L111.94-27.65Q111.94-27.20 111.42-27.20L111.42-27.20L108.54-27.20L108.54-27.20Q107.01-27.20 106.75-26.62L106.75-26.62L106.75-26.62Q106.50-25.79 106.50-24.77L106.50-24.77L106.50-4.93L106.50-4.93Q106.50-2.75 105.06-1.38L105.06-1.38L105.06-1.38Q103.62 0 100.80 0L100.80 0L96.90 0L96.90-24.90L96.90-24.90Q96.90-28.67 98.59-30.34L98.59-30.34L98.59-30.34Q100.29-32 103.87-32ZM126.34-32L126.34 0L126.21 0L126.21 0Q119.87 0 118.40-2.18L118.40-2.18L118.40-2.18Q117.70-3.20 117.28-4.16L117.28-4.16L117.28-4.16Q116.86-5.12 116.74-7.17L116.74-7.17L116.74-7.17Q116.42-10.88 116.42-15.42L116.42-15.42L116.42-15.42Q116.42-19.97 116.48-21.98L116.48-21.98L116.48-21.98Q116.54-24 116.90-26.08L116.90-26.08L116.90-26.08Q117.25-28.16 117.82-29.09L117.82-29.09L117.82-29.09Q118.40-30.02 119.55-30.78L119.55-30.78L119.55-30.78Q120.70-31.55 122.24-31.78L122.24-31.78L122.24-31.78Q123.78-32 126.21-32L126.21-32L126.34-32ZM143.36-10.11L143.36-10.11L143.36-6.85L143.36-6.85Q143.36 0 136.38 0L136.38 0L128.32 0L128.32-4.80L131.78-4.80L131.78-4.80Q133.12-4.80 133.44-5.22L133.44-5.22L133.44-5.22Q133.76-5.63 133.76-6.72L133.76-6.72L133.76-8.77L133.76-8.77Q133.76-9.73 133.98-9.86L133.98-9.86L133.98-9.86Q134.21-9.98 134.27-10.02L134.27-10.02L134.27-10.02Q134.34-10.05 134.62-10.08L134.62-10.08L134.62-10.08Q134.91-10.11 135.04-10.11L135.04-10.11L135.04-10.11Q139.20-10.11 143.36-10.11ZM128.32-27.20L128.32-32L135.74-32L135.74-32Q140.16-32 141.76-30.27L141.76-30.27L141.76-30.27Q143.36-28.54 143.36-25.15L143.36-25.15L143.36-19.52L143.36-19.52Q143.36-13.76 137.09-13.76L137.09-13.76L127.68-13.76L127.68-18.56L131.14-18.56L131.14-18.56Q132.67-18.56 133.22-18.94L133.22-18.94L133.22-18.94Q133.76-19.33 133.76-20.42L133.76-20.42L133.76-25.28L133.76-25.28Q133.76-26.37 133.44-26.78L133.44-26.78L133.44-26.78Q133.12-27.20 131.78-27.20L131.78-27.20L128.32-27.20ZM161.34-27.20L161.34-32L170.30-32L170.30-32Q177.28-32 177.28-25.15L177.28-25.15L177.28 0L169.98 0L169.98 0Q168.96 0 168.32-0.70L168.32-0.70L168.32-0.70Q167.68-1.41 167.68-2.56L167.68-2.56L167.68-25.28L167.68-25.28Q167.68-26.30 167.20-26.75L167.20-26.75L167.20-26.75Q166.72-27.20 165.06-27.20L165.06-27.20L161.34-27.20ZM150.14-2.56L150.14-32L154.05-32L154.05-32Q156.86-32 158.30-30.62L158.30-30.62L158.30-30.62Q159.74-29.25 159.74-27.07L159.74-27.07L159.74 0L152.45 0L152.45 0Q151.42 0 150.78-0.70L150.78-0.70L150.78-0.70Q150.14-1.41 150.14-2.56L150.14-2.56ZM200.83-4.42L200.83-0.51L200.83-0.51Q200.83-0.13 200.45 0L200.45 0L195.58 0L195.58 0Q190.91 0 188.80-1.86L188.80-1.86L188.80-1.86Q186.69-3.71 186.69-8.38L186.69-8.38L186.69-27.07L183.42-27.07L183.42-27.07Q181.82-27.07 181.82-28.99L181.82-28.99L181.82-32L186.69-32L186.69-46.27L190.59-46.27L190.59-46.27Q193.41-46.27 194.85-44.86L194.85-44.86L194.85-44.86Q196.29-43.46 196.29-41.28L196.29-41.28L196.29-7.23L196.29-7.23Q196.29-4.86 198.98-4.86L198.98-4.86L200.32-4.86L200.32-4.86Q200.83-4.86 200.83-4.42L200.83-4.42ZM197.89-32L202.82-32L202.82-28.99L202.82-28.99Q202.82-27.07 201.22-27.07L201.22-27.07L197.89-27.07L197.89-32ZM217.66-46.21L218.43-46.21L218.43-27.84L218.43-27.84Q218.43-26.82 218.91-26.37L218.91-26.37L218.91-26.37Q219.39-25.92 221.06-25.92L221.06-25.92L225.79-25.92L225.79-19.84L217.66-19.84L217.66-19.84Q214.02-19.84 211.81-20.61L211.81-20.61L211.81-20.61Q209.60-21.38 208.54-23.33L208.54-23.33L208.54-23.33Q207.49-25.28 207.20-27.52L207.20-27.52L207.20-27.52Q206.91-29.76 206.91-33.57L206.91-33.57L206.91-33.57Q206.91-37.38 207.20-39.36L207.20-39.36L207.20-39.36Q207.49-41.34 208.54-43.07L208.54-43.07L208.54-43.07Q209.60-44.80 211.81-45.50L211.81-45.50L211.81-45.50Q214.02-46.21 217.66-46.21L217.66-46.21ZM228.35 0L228.35-25.92L229.12-25.92L229.12-25.92Q231.87-25.92 233.38-25.82L233.38-25.82L233.38-25.82Q234.88-25.73 236.29-25.25L236.29-25.25L236.29-25.25Q237.70-24.77 238.24-24.13L238.24-24.13L238.24-24.13Q238.78-23.49 239.26-21.92L239.26-21.92L239.26-21.92Q239.74-20.35 239.81-18.56L239.81-18.56L239.81-18.56Q239.87-16.77 239.87-13.44L239.87-13.44L239.87-13.44Q239.87-10.11 239.81-8.16L239.81-8.16L239.81-8.16Q239.74-6.21 239.26-4.45L239.26-4.45L239.26-4.45Q238.78-2.69 238.24-1.98L238.24-1.98L238.24-1.98Q237.70-1.28 236.29-0.74L236.29-0.74L236.29-0.74Q234.88-0.19 233.38-0.10L233.38-0.10L233.38-0.10Q231.87 0 229.12 0L229.12 0L228.35 0ZM207.81-14.27L207.81-14.27L215.87-14.27L215.87-14.27Q216.77-14.27 216.96-14.02L216.96-14.02L216.96-14.02Q217.15-13.76 217.15-12.93L217.15-12.93L217.15-7.94L217.15-7.94Q217.15-6.91 217.44-6.50L217.44-6.50L217.44-6.50Q217.73-6.08 218.88-6.08L218.88-6.08L225.79-6.08L225.79 0L216.38 0L216.38 0Q211.71 0 209.31-1.60L209.31-1.60L209.31-1.60Q206.91-3.20 206.91-7.17L206.91-7.17L206.91-12.93L206.91-12.93Q206.91-14.27 207.81-14.27ZM220.99-40.19L220.99-46.27L229.12-46.27L229.12-46.27Q233.79-46.27 236.19-44.67L236.19-44.67L236.19-44.67Q238.59-43.07 238.59-39.10L238.59-39.10L238.59-33.34L238.59-33.34Q238.59-32 237.70-32L237.70-32L229.63-32L229.63-32Q228.74-32 228.54-32.26L228.54-32.26L228.54-32.26Q228.35-32.51 228.35-33.34L228.35-33.34L228.35-38.34L228.35-38.34Q228.35-39.36 228.06-39.78L228.06-39.78L228.06-39.78Q227.78-40.19 226.62-40.19L226.62-40.19L220.99-40.19ZM256.45-32L256.45 0L256.32 0L256.32 0Q249.98 0 248.51-2.18L248.51-2.18L248.51-2.18Q247.81-3.20 247.39-4.16L247.39-4.16L247.39-4.16Q246.98-5.12 246.85-7.17L246.85-7.17L246.85-7.17Q246.53-10.88 246.53-15.42L246.53-15.42L246.53-15.42Q246.53-19.97 246.59-21.98L246.59-21.98L246.59-21.98Q246.66-24 247.01-26.08L247.01-26.08L247.01-26.08Q247.36-28.16 247.94-29.09L247.94-29.09L247.94-29.09Q248.51-30.02 249.66-30.78L249.66-30.78L249.66-30.78Q250.82-31.55 252.35-31.78L252.35-31.78L252.35-31.78Q253.89-32 256.32-32L256.32-32L256.45-32ZM273.47-10.11L273.47-10.11L273.47-6.85L273.47-6.85Q273.47 0 266.50 0L266.50 0L258.43 0L258.43-4.80L261.89-4.80L261.89-4.80Q263.23-4.80 263.55-5.22L263.55-5.22L263.55-5.22Q263.87-5.63 263.87-6.72L263.87-6.72L263.87-8.77L263.87-8.77Q263.87-9.73 264.10-9.86L264.10-9.86L264.10-9.86Q264.32-9.98 264.38-10.02L264.38-10.02L264.38-10.02Q264.45-10.05 264.74-10.08L264.74-10.08L264.74-10.08Q265.02-10.11 265.15-10.11L265.15-10.11L265.15-10.11Q269.31-10.11 273.47-10.11ZM258.43-27.20L258.43-32L265.86-32L265.86-32Q270.27-32 271.87-30.27L271.87-30.27L271.87-30.27Q273.47-28.54 273.47-25.15L273.47-25.15L273.47-19.52L273.47-19.52Q273.47-13.76 267.20-13.76L267.20-13.76L257.79-13.76L257.79-18.56L261.25-18.56L261.25-18.56Q262.78-18.56 263.33-18.94L263.33-18.94L263.33-18.94Q263.87-19.33 263.87-20.42L263.87-20.42L263.87-25.28L263.87-25.28Q263.87-26.37 263.55-26.78L263.55-26.78L263.55-26.78Q263.23-27.20 261.89-27.20L261.89-27.20L258.43-27.20ZM295.81-32L295.81-27.20L292.35-27.20L292.35-27.20Q290.37-27.20 290.11-26.50L290.11-26.50L290.11-26.50Q289.73-25.66 289.73-24.13L289.73-24.13L289.73-7.87L289.73-7.87Q289.73-7.74 289.73-7.10L289.73-7.10L289.73-7.10Q289.73-6.46 289.86-6.02L289.86-6.02L289.86-6.02Q290.11-4.80 292.35-4.80L292.35-4.80L295.81-4.80L295.81 0L289.60 0L289.60 0Q287.17 0 285.63-0.22L285.63-0.22L285.63-0.22Q284.10-0.45 282.94-1.22L282.94-1.22L282.94-1.22Q281.79-1.98 281.22-2.91L281.22-2.91L281.22-2.91Q280.64-3.84 280.26-5.89L280.26-5.89L280.26-5.89Q279.81-8.77 279.81-13.95L279.81-13.95L279.81-13.95Q279.81-19.14 279.87-20.96L279.87-20.96L279.87-20.96Q279.94-22.78 280.10-24.83L280.10-24.83L280.10-24.83Q280.26-26.88 280.67-27.84L280.67-27.84L280.67-27.84Q281.09-28.80 281.76-29.79L281.76-29.79L281.76-29.79Q282.43-30.78 283.52-31.17L283.52-31.17L283.52-31.17Q285.89-32 289.60-32L289.60-32L295.81-32ZM310.21-4.35L310.21-0.45L310.21-0.45Q310.21 0 309.95 0L309.95 0L304.70 0L304.70 0Q301.12 0 299.42-1.66L299.42-1.66L299.42-1.66Q297.73-3.33 297.73-7.10L297.73-7.10L297.73-32L300.35-32L300.35-32Q304.38-32 305.86-30.11L305.86-30.11L305.86-30.11Q307.33-28.22 307.33-25.15L307.33-25.15L307.33-7.23L307.33-7.23Q307.33-5.25 308.16-4.99L308.16-4.99L308.16-4.99Q308.61-4.80 309.38-4.80L309.38-4.80L309.70-4.80L309.70-4.80Q310.21-4.80 310.21-4.35L310.21-4.35ZM322.11-32L322.11-32L329.79-32L329.79-32Q330.18-32 330.18-31.55L330.18-31.55L330.18-27.65L330.18-27.65Q330.18-27.20 329.66-27.20L329.66-27.20L326.78-27.20L326.78-27.20Q325.25-27.20 324.99-26.62L324.99-26.62L324.99-26.62Q324.74-25.79 324.74-24.77L324.74-24.77L324.74-4.93L324.74-4.93Q324.74-2.75 323.30-1.38L323.30-1.38L323.30-1.38Q321.86 0 319.04 0L319.04 0L315.14 0L315.14-24.90L315.14-24.90Q315.14-28.67 316.83-30.34L316.83-30.34L316.83-30.34Q318.53-32 322.11-32ZM344.58-32L344.58 0L344.45 0L344.45 0Q338.11 0 336.64-2.18L336.64-2.18L336.64-2.18Q335.94-3.20 335.52-4.16L335.52-4.16L335.52-4.16Q335.10-5.12 334.98-7.17L334.98-7.17L334.98-7.17Q334.66-10.88 334.66-15.42L334.66-15.42L334.66-15.42Q334.66-19.97 334.72-21.98L334.72-21.98L334.72-21.98Q334.78-24 335.14-26.08L335.14-26.08L335.14-26.08Q335.49-28.16 336.06-29.09L336.06-29.09L336.06-29.09Q336.64-30.02 337.79-30.78L337.79-30.78L337.79-30.78Q338.94-31.55 340.48-31.78L340.48-31.78L340.48-31.78Q342.02-32 344.45-32L344.45-32L344.58-32ZM352-6.72L352-10.11L352-10.11Q356.29-10.11 358.53-10.11L358.53-10.11L358.53-10.11Q360.77-10.11 360.83-10.08L360.83-10.08L360.83-10.08Q360.90-10.05 361.06-10.02L361.06-10.02L361.06-10.02Q361.22-9.98 361.28-9.92L361.28-9.92L361.28-9.92Q361.34-9.86 361.41-9.76L361.41-9.76L361.41-9.76Q361.47-9.66 361.47-9.47L361.47-9.47L361.47-9.47Q361.60-9.02 361.60-8.77L361.60-8.77L361.60-6.85L361.60-6.85Q361.60 0 354.62 0L354.62 0L346.56 0L346.56-4.80L350.02-4.80L350.02-4.80Q351.36-4.80 351.68-5.22L351.68-5.22L351.68-5.22Q352-5.63 352-6.72L352-6.72ZM346.56-27.20L346.56-32L354.62-32L354.62-32Q361.60-32 361.60-25.15L361.60-25.15L361.60-20.80L361.60-20.80Q357.31-20.80 355.07-20.80L355.07-20.80L355.07-20.80Q352.83-20.80 352.77-20.83L352.77-20.83L352.77-20.83Q352.70-20.86 352.54-20.90L352.54-20.90L352.54-20.90Q352.38-20.93 352.32-20.99L352.32-20.99L352.32-20.99Q352.26-21.06 352.19-21.15L352.19-21.15L352.19-21.15Q352.13-21.25 352.13-21.38L352.13-21.38L352.13-21.38Q352-21.89 352-22.14L352-22.14L352-25.28L352-25.28Q352-26.37 351.68-26.78L351.68-26.78L351.68-26.78Q351.36-27.20 350.02-27.20L350.02-27.20L346.56-27.20ZM379.26-27.20L379.26-32L388.22-32L388.22-32Q395.20-32 395.20-25.15L395.20-25.15L395.20 0L387.90 0L387.90 0Q386.88 0 386.24-0.70L386.24-0.70L386.24-0.70Q385.60-1.41 385.60-2.56L385.60-2.56L385.60-25.28L385.60-25.28Q385.60-26.30 385.12-26.75L385.12-26.75L385.12-26.75Q384.64-27.20 382.98-27.20L382.98-27.20L379.26-27.20ZM368.06-2.56L368.06-46.27L371.97-46.27L371.97-46.27Q374.78-46.27 376.22-44.90L376.22-44.90L376.22-44.90Q377.66-43.52 377.66-41.34L377.66-41.34L377.66 0L370.37 0L370.37 0Q369.34 0 368.70-0.70L368.70-0.70L368.70-0.70Q368.06-1.41 368.06-2.56L368.06-2.56Z" fill="#ccc"></path></g></g><style>text {
  font-size: 64px;
  font-family: Arial Black;
  dominant-baseline: central;
  text-anchor: middle;
}</style></svg>