<svg width="576.9500366210938px" height="107.6px" xmlns="http://www.w3.org/2000/svg" viewBox="-38.475018310546886 21.200000000000003 576.9500366210938 107.6" style="background: rgba(0, 0, 0, 0);" preserveAspectRatio="xMidYMid"><defs><linearGradient id="editing-outline-gradient" x1="-0.41354545764260087" x2="1.4135454576426008" y1="0.09326335692419985" y2="0.9067366430758002"><stop offset="0" stop-color="#ee4208"></stop><stop offset="1" stop-color="#4139ff"></stop></linearGradient><filter id="editing-outline" x="-100%" y="-100%" width="300%" height="300%"><feMorphology in="SourceGraphic" operator="dilate" radius="1" result="outline"></feMorphology><feComposite operator="out" in="outline" in2="SourceAlpha"></feComposite></filter></defs><g filter="url(#editing-outline)"><g transform="translate(47.374988436698914, 95.8950023651123)"><path d="M29.63-41.02L30.02-40.51L29.63-36.54L22.46-36.93L18.30-36.93L18.11-12.80L18.30 0L13.12 0L13.50-12.35L13.18-36.93L9.02-36.93L1.73-36.54L1.41-37.06L1.79-41.02L29.63-41.02ZM47.10-32.26L47.10-32.26Q54.08-32.26 57.82-28.16L57.82-28.16L57.82-28.16Q61.57-24.06 61.57-16.58L61.57-16.58L61.57-16.58Q61.57-8.45 57.57-4L57.57-4L57.57-4Q53.57 0.45 46.14 0.45L46.14 0.45L46.14 0.45Q39.23 0.45 35.46-3.74L35.46-3.74L35.46-3.74Q31.68-7.94 31.68-15.68L31.68-15.68L31.68-15.68Q31.68-23.62 35.71-27.94L35.71-27.94L35.71-27.94Q39.74-32.26 47.10-32.26L47.10-32.26ZM46.66-28.22L46.66-28.22Q41.60-28.22 39.14-25.34L39.14-25.34L39.14-25.34Q36.67-22.46 36.67-16.26L36.67-16.26L36.67-16.26Q36.67-9.60 39.10-6.59L39.10-6.59L39.10-6.59Q41.54-3.58 46.53-3.58L46.53-3.58L46.53-3.58Q51.65-3.58 54.14-6.53L54.14-6.53L54.14-6.53Q56.64-9.47 56.64-15.74L56.64-15.74L56.64-15.74Q56.64-22.21 54.18-25.22L54.18-25.22L54.18-25.22Q51.71-28.22 46.66-28.22L46.66-28.22ZM84.86-12.86L84.86-12.86Q88.77-6.91 93.50-1.15L93.50-1.15L93.44-0.51L93.44-0.51Q90.75 0.32 89.02 0.45L89.02 0.45L88.19-0.06L88.19-0.06Q83.33-7.42 80.83-11.65L80.83-11.65L74.82-11.58L74.82-9.98L74.94 0L70.21 0L70.40-9.60L70.21-31.87L81.09-31.94L81.09-31.94Q86.14-31.94 88.86-29.57L88.86-29.57L88.86-29.57Q91.58-27.20 91.58-22.72L91.58-22.72L91.58-22.72Q91.58-19.46 89.82-16.90L89.82-16.90L89.82-16.90Q88.06-14.34 84.86-12.86L84.86-12.86ZM74.94-28.03L74.88-15.55L80.90-15.36L80.90-15.36Q86.59-16.96 86.59-22.34L86.59-22.34L86.59-22.34Q86.59-25.15 84.93-26.56L84.93-26.56L84.93-26.56Q83.26-27.97 79.87-28.10L79.87-28.10L74.94-28.03ZM116.61-12.86L116.61-12.86Q120.51-6.91 125.25-1.15L125.25-1.15L125.18-0.51L125.18-0.51Q122.50 0.32 120.77 0.45L120.77 0.45L119.94-0.06L119.94-0.06Q115.07-7.42 112.58-11.65L112.58-11.65L106.56-11.58L106.56-9.98L106.69 0L101.95 0L102.14-9.60L101.95-31.87L112.83-31.94L112.83-31.94Q117.89-31.94 120.61-29.57L120.61-29.57L120.61-29.57Q123.33-27.20 123.33-22.72L123.33-22.72L123.33-22.72Q123.33-19.46 121.57-16.90L121.57-16.90L121.57-16.90Q119.81-14.34 116.61-12.86L116.61-12.86ZM106.69-28.03L106.62-15.55L112.64-15.36L112.64-15.36Q118.34-16.96 118.34-22.34L118.34-22.34L118.34-22.34Q118.34-25.15 116.67-26.56L116.67-26.56L116.67-26.56Q115.01-27.97 111.62-28.10L111.62-28.10L106.69-28.03ZM144.64-3.84L153.15-4.10L153.54-3.71L153.09 0L133.70 0L133.89-9.60L133.70-31.87L153.22-31.87L153.54-31.49L153.15-27.78L145.09-28.03L138.43-27.97L138.37-18.30L144.70-18.24L150.27-18.43L150.59-17.98L150.21-14.21L144.32-14.40L138.37-14.34L138.30-9.98L138.37-3.90L144.64-3.84ZM188.16-32L187.97-9.54L188.03 0L182.91 0L166.14-24.32L165.82-24.32L165.76-10.62L165.89 0L161.54 0L161.73-9.41L161.60-31.87L166.66-31.87L183.42-7.55L183.87-7.55L183.74-31.68L188.16-32ZM218.69-31.87L218.94-31.49L218.62-27.46L212.67-27.90L209.47-27.90L209.28-9.98L209.47 0L204.67 0L204.86-9.60L204.74-27.90L201.54-27.90L195.46-27.46L195.07-27.90L195.46-31.87L218.69-31.87ZM237.06-41.34L237.06-41.34Q241.47-41.34 246.21-39.42L246.21-39.42L245.38-34.50L244.48-34.24L244.48-34.24Q242.62-35.65 240.54-36.42L240.54-36.42L240.54-36.42Q238.46-37.18 236.42-37.18L236.42-37.18L236.42-37.18Q234.05-37.18 232.29-36.22L232.29-36.22L232.29-36.22Q230.53-35.26 229.60-33.73L229.60-33.73L229.60-33.73Q228.67-32.19 228.67-30.53L228.67-30.53L228.67-30.53Q228.67-28.80 229.73-27.49L229.73-27.49L229.73-27.49Q230.78-26.18 232.38-25.22L232.38-25.22L232.38-25.22Q233.98-24.26 236.74-22.91L236.74-22.91L236.74-22.91Q240.19-21.31 242.30-19.94L242.30-19.94L242.30-19.94Q244.42-18.56 245.92-16.45L245.92-16.45L245.92-16.45Q247.42-14.34 247.42-11.33L247.42-11.33L247.42-11.33Q247.42-8.13 245.70-5.44L245.70-5.44L245.70-5.44Q243.97-2.75 240.83-1.15L240.83-1.15L240.83-1.15Q237.70 0.45 233.66 0.45L233.66 0.45L233.66 0.45Q230.98 0.45 228.06-0.29L228.06-0.29L228.06-0.29Q225.15-1.02 222.66-2.43L222.66-2.43L223.30-7.68L224.00-8L224.00-8Q226.24-5.82 228.96-4.77L228.96-4.77L228.96-4.77Q231.68-3.71 234.18-3.71L234.18-3.71L234.18-3.71Q236.61-3.71 238.50-4.67L238.50-4.67L238.50-4.67Q240.38-5.63 241.38-7.23L241.38-7.23L241.38-7.23Q242.37-8.83 242.37-10.62L242.37-10.62L242.37-10.62Q242.37-13.31 240.32-14.94L240.32-14.94L240.32-14.94Q238.27-16.58 234.11-18.50L234.11-18.50L234.11-18.50Q230.72-20.16 228.67-21.47L228.67-21.47L228.67-21.47Q226.62-22.78 225.15-24.86L225.15-24.86L225.15-24.86Q223.68-26.94 223.68-29.95L223.68-29.95L223.68-29.95Q223.68-33.09 225.38-35.71L225.38-35.71L225.38-35.71Q227.07-38.34 230.11-39.84L230.11-39.84L230.11-39.84Q233.15-41.34 237.06-41.34L237.06-41.34ZM266.88-3.84L275.39-4.10L275.78-3.71L275.33 0L255.94 0L256.13-9.60L255.94-31.87L275.46-31.87L275.78-31.49L275.39-27.78L267.33-28.03L260.67-27.97L260.61-18.30L266.94-18.24L272.51-18.43L272.83-17.98L272.45-14.21L266.56-14.40L260.61-14.34L260.54-9.98L260.61-3.90L266.88-3.84ZM297.41-31.87L308.61 0L303.81 0L303.04-3.46L301.38-8.19L293.76-8.26L286.98-8.19L285.25-3.71L284.35 0L279.62 0L291.90-31.87L297.41-31.87ZM294.14-12.03L300.03-12.10L294.72-27.20L294.34-27.20L288.51-12.10L294.14-12.03ZM331.20-12.86L331.20-12.86Q335.10-6.91 339.84-1.15L339.84-1.15L339.78-0.51L339.78-0.51Q337.09 0.32 335.36 0.45L335.36 0.45L334.53-0.06L334.53-0.06Q329.66-7.42 327.17-11.65L327.17-11.65L321.15-11.58L321.15-9.98L321.28 0L316.54 0L316.74-9.60L316.54-31.87L327.42-31.94L327.42-31.94Q332.48-31.94 335.20-29.57L335.20-29.57L335.20-29.57Q337.92-27.20 337.92-22.72L337.92-22.72L337.92-22.72Q337.92-19.46 336.16-16.90L336.16-16.90L336.16-16.90Q334.40-14.34 331.20-12.86L331.20-12.86ZM321.28-28.03L321.22-15.55L327.23-15.36L327.23-15.36Q332.93-16.96 332.93-22.34L332.93-22.34L332.93-22.34Q332.93-25.15 331.26-26.56L331.26-26.56L331.26-26.56Q329.60-27.97 326.21-28.10L326.21-28.10L321.28-28.03ZM360.06-32.19L360.06-32.19Q365.38-32.19 369.28-29.95L369.28-29.95L368.38-25.54L367.81-25.34L367.81-25.34Q366.21-26.69 364.10-27.46L364.10-27.46L364.10-27.46Q361.98-28.22 359.55-28.22L359.55-28.22L359.55-28.22Q354.82-28.22 352.32-25.18L352.32-25.18L352.32-25.18Q349.82-22.14 349.82-16.13L349.82-16.13L349.82-16.13Q349.82-10.05 352.32-6.85L352.32-6.85L352.32-6.85Q354.82-3.65 359.55-3.65L359.55-3.65L359.55-3.65Q361.86-3.65 364.19-4.45L364.19-4.45L364.19-4.45Q366.53-5.25 368.38-6.59L368.38-6.59L368.96-6.40L368.51-1.98L368.51-1.98Q364.16 0.38 359.36 0.38L359.36 0.38L359.36 0.38Q352.32 0.38 348.54-3.81L348.54-3.81L348.54-3.81Q344.77-8 344.77-15.74L344.77-15.74L344.77-15.74Q344.77-23.62 348.77-27.90L348.77-27.90L348.77-27.90Q352.77-32.19 360.06-32.19L360.06-32.19ZM403.84-31.87L403.65-9.98L403.78 0L399.04 0L399.23-9.60L399.17-13.95L381.82-13.89L381.76-9.98L381.89 0L377.15 0L377.34-9.60L377.15-31.87L381.95-31.87L381.82-18.18L390.46-18.11L399.17-18.18L399.04-31.87L403.84-31.87Z" fill="url(#editing-outline-gradient)"></path></g></g><style>text {
  font-size: 64px;
  font-family: Arial Black;
  dominant-baseline: central;
  text-anchor: middle;
}</style></svg>